<svg xmlns="http://www.w3.org/2000/svg" version="1.1" xmlns:xlink="http://www.w3.org/1999/xlink" xmlns:svgjs="http://svgjs.dev/svgjs" width="2000" height="686" viewBox="0 0 2000 686"><g transform="matrix(1,0,0,1,-1.2121212121212466,-1.1326491924441484)"><svg viewBox="0 0 396 136" data-background-color="#ffffff" preserveAspectRatio="xMidYMid meet" height="686" width="2000" xmlns="http://www.w3.org/2000/svg" xmlns:xlink="http://www.w3.org/1999/xlink"><g id="tight-bounds" transform="matrix(1,0,0,1,0.2400000000000091,0.22454852794811586)"><svg viewBox="0 0 395.52 135.55090294410377" height="135.55090294410377" width="395.52"><g><svg viewBox="0 0 624.0217939995581 213.862049032766" height="135.55090294410377" width="395.52"><g transform="matrix(1,0,0,1,228.50179399955815,60.38453200393553)"><svg viewBox="0 0 395.52 93.09298502489494" height="93.09298502489494" width="395.52"><g id="textblocktransform"><svg viewBox="0 0 395.52 93.09298502489494" height="93.09298502489494" width="395.52" id="textblock"><g><svg viewBox="0 0 395.52 62.01284741690027" height="62.01284741690027" width="395.52"><g transform="matrix(1,0,0,1,0,0)"><svg width="395.52" viewBox="2.7 -38.6 249.68 39.15" height="62.01284741690027" data-palette-color="#31302e"><path d="M30.35-6.5L32.15-3.4Q26.9 0.55 19.7 0.55L19.7 0.55Q12.95 0.55 8-3.8L8-3.8Q5.6-5.9 4.15-9.33 2.7-12.75 2.7-17.1 2.7-21.45 4.23-25.1 5.75-28.75 8.3-31.05L8.3-31.05Q13.55-35.8 20.6-35.8L20.6-35.8Q25.9-35.8 29.85-33.65L29.85-33.65 29.85-25.5 25.75-25.5 24.85-30.7Q23.85-31.8 20.7-31.8L20.7-31.8Q14.75-31.8 11.35-27.65 7.95-23.5 7.95-17.23 7.95-10.95 11.48-7.23 15-3.5 20.4-3.5L20.4-3.5Q22.95-3.5 25.45-4.25 27.95-5 29.15-5.75L29.15-5.75 30.35-6.5ZM57.8-3.08Q54.15 0.55 48.6 0.55 43.05 0.55 39.4-3.08 35.75-6.7 35.75-12.5 35.75-18.3 39.4-21.95 43.05-25.6 48.6-25.6 54.15-25.6 57.8-21.95 61.45-18.3 61.45-12.5 61.45-6.7 57.8-3.08ZM42.85-5.83Q45.1-3.4 48.6-3.4 52.1-3.4 54.35-5.83 56.6-8.25 56.6-12.35 56.6-16.45 54.32-19.05 52.05-21.65 48.6-21.65 45.15-21.65 42.87-19.05 40.6-16.45 40.6-12.35 40.6-8.25 42.85-5.83ZM88.09-3.08Q84.45 0.55 78.9 0.55 73.34 0.55 69.7-3.08 66.05-6.7 66.05-12.5 66.05-18.3 69.7-21.95 73.34-25.6 78.9-25.6 84.45-25.6 88.09-21.95 91.75-18.3 91.75-12.5 91.75-6.7 88.09-3.08ZM73.15-5.83Q75.4-3.4 78.9-3.4 82.4-3.4 84.65-5.83 86.9-8.25 86.9-12.35 86.9-16.45 84.62-19.05 82.34-21.65 78.9-21.65 75.45-21.65 73.17-19.05 70.9-16.45 70.9-12.35 70.9-8.25 73.15-5.83ZM125.79-2.15L125.79 0 113.79 0 113.79-2.15 116.39-3.1 104.49-14.8 113.74-22.35 110.19-22.85 110.19-25 122.74-25 122.74-22.85 118.99-21.9 110.19-14.8 122.04-3.1 125.79-2.15ZM108.64-2.15L108.64 0 95.49 0 95.49-2.15 99.69-3.8 99.69-34.65 95.49-34.65 95.49-37.65Q97.44-38.6 100.02-38.6 102.59-38.6 103.49-37.38 104.39-36.15 104.39-33.65L104.39-33.65 104.39-3.8 108.64-2.15ZM145.79 0L145.79 0 128.44 0 128.44-2.2 132.99-3.85 132.99-31.45 128.44-33.1 128.44-35.3 143.09-35.3Q149.79-35.3 152.99-31.4L152.99-31.4Q154.79-29.2 154.79-26L154.79-26Q154.79-21.3 151.59-18.85L151.59-18.85Q157.49-16.7 157.49-10.15L157.49-10.15Q157.49-7.45 156.39-5.4 155.29-3.35 153.49-2.2L153.49-2.2Q149.99 0 145.79 0ZM138.04-16.45L138.04-3.75 143.44-3.75Q148.04-3.75 150.32-5.15 152.59-6.55 152.59-10 152.59-13.45 150.64-14.95 148.69-16.45 145.64-16.45L145.64-16.45 138.04-16.45ZM138.09-31.55L138.09-19.75 142.94-19.75Q149.89-19.75 149.89-25.95L149.89-25.95Q149.89-29.15 147.59-30.35 145.29-31.55 140.74-31.55L140.74-31.55 138.09-31.55ZM184.39-3.08Q180.74 0.55 175.19 0.55 169.64 0.55 165.99-3.08 162.34-6.7 162.34-12.5 162.34-18.3 165.99-21.95 169.64-25.6 175.19-25.6 180.74-25.6 184.39-21.95 188.04-18.3 188.04-12.5 188.04-6.7 184.39-3.08ZM169.44-5.83Q171.69-3.4 175.19-3.4 178.69-3.4 180.94-5.83 183.19-8.25 183.19-12.35 183.19-16.45 180.91-19.05 178.64-21.65 175.19-21.65 171.74-21.65 169.46-19.05 167.19-16.45 167.19-12.35 167.19-8.25 169.44-5.83ZM214.69-3.08Q211.04 0.55 205.49 0.55 199.94 0.55 196.29-3.08 192.64-6.7 192.64-12.5 192.64-18.3 196.29-21.95 199.94-25.6 205.49-25.6 211.04-25.6 214.69-21.95 218.34-18.3 218.34-12.5 218.34-6.7 214.69-3.08ZM199.74-5.83Q201.99-3.4 205.49-3.4 208.99-3.4 211.24-5.83 213.49-8.25 213.49-12.35 213.49-16.45 211.21-19.05 208.94-21.65 205.49-21.65 202.04-21.65 199.76-19.05 197.49-16.45 197.49-12.35 197.49-8.25 199.74-5.83ZM252.38-2.15L252.38 0 240.38 0 240.38-2.15 242.98-3.1 231.08-14.8 240.33-22.35 236.78-22.85 236.78-25 249.33-25 249.33-22.85 245.58-21.9 236.78-14.8 248.63-3.1 252.38-2.15ZM235.23-2.15L235.23 0 222.08 0 222.08-2.15 226.28-3.8 226.28-34.65 222.08-34.65 222.08-37.65Q224.03-38.6 226.61-38.6 229.18-38.6 230.08-37.38 230.98-36.15 230.98-33.65L230.98-33.65 230.98-3.8 235.23-2.15Z" opacity="1" transform="matrix(1,0,0,1,0,0)" fill="#31302e" class="wordmark-text-0" data-fill-palette-color="primary" id="text-0"></path></svg></g></svg></g><g transform="matrix(1,0,0,1,0,76.65259238369242)"><svg viewBox="0 0 232.209792 16.440392641202518" height="16.440392641202518" width="232.209792"><g transform="matrix(1,0,0,1,0,0)"><svg width="232.209792" viewBox="1.24 -40 708.4 50.16" height="16.440392641202518" data-palette-color="#31302e"><path d="M10.25 0L4.48 0 1.24-30 1.9-30 5.05-0.53 9.7-0.53 10.83-12.45 12.01-27.66 13.86-27.66 15.03-12.43 16.14-0.53 20.79-0.53 23.96-30 24.63-30 21.36 0 15.59 0 14.46-12.34 13.3-27.15 12.58-27.15 11.4-12.34 10.25 0ZM9.1-1.04L5.54-1.04 4.41-12.48 2.55-30 3.21-30 4.98-12.84 6.06-1.56 8.55-1.56 9.6-12.91 11.08-28.71 14.8-28.71 16.26-12.89 17.29-1.56 19.78-1.56 20.86-12.73 22.65-30 23.31-30 21.43-12.36 20.31-1.04 16.74-1.04 15.66-12.54 14.33-28.19 11.55-28.19 10.21-12.55 9.1-1.04ZM8.1-2.09L6.48-2.09 5.5-13.23 3.88-30 4.53-30 6.05-13.83 7.03-2.6 7.58-2.6 8.59-13.85 10.1-29.75 15.78-29.75 17.28-13.85 18.26-2.6 18.81-2.6 19.79-13.75 21.35-30 22-30 20.35-13.15 19.36-2.09 17.75-2.09 16.76-13.29 15.25-29.23 10.64-29.23 9.09-13.29 8.1-2.09ZM41.84 0L41.17 0 41.17-23.78Q41.17-25.69 40.74-27.03 40.31-28.36 39.23-29.06 38.15-29.76 36.19-29.76L36.19-29.76Q34.41-29.76 33.12-28.93 31.84-28.09 31.06-26.53L31.06-26.53 30.88-26.53 31.17-32.74 31.17-40 31.85-40 31.85-34.8 31.41-27.71 31.54-27.71Q32.3-28.96 33.52-29.66 34.75-30.35 36.36-30.35L36.36-30.35Q38.52-30.35 39.7-29.59 40.88-28.84 41.36-27.39 41.84-25.95 41.84-23.89L41.84-23.89 41.84 0ZM29.27 0L28.61 0 28.61-40 29.27-40 29.27 0ZM31.95 0L31.26 0 31.26-23.3Q31.26-24.48 31.74-25.53 32.22-26.59 33.2-27.25 34.19-27.91 35.69-27.91L35.69-27.91Q37.76-27.91 38.48-26.78 39.2-25.65 39.2-23.56L39.2-23.56 39.2 0 38.53 0 38.53-23.53Q38.53-25.29 37.95-26.31 37.36-27.33 35.6-27.33L35.6-27.33Q34.36-27.33 33.55-26.76 32.73-26.2 32.34-25.29 31.95-24.39 31.95-23.34L31.95-23.34 31.95 0ZM30.6 0L29.93 0 29.93-40 30.57-40 30.57-30.13 30.45-24.98 30.62-24.98Q31.25-26.93 32.62-28.05 34-29.18 36.02-29.15L36.02-29.15Q38.73-29.14 39.62-27.69 40.51-26.25 40.51-23.74L40.51-23.74 40.51 0 39.85 0 39.85-23.66Q39.85-26.03 39.02-27.29 38.19-28.56 35.82-28.56L35.82-28.56Q34.06-28.56 32.9-27.74 31.75-26.91 31.17-25.68 30.6-24.45 30.6-23.24L30.6-23.24 30.6 0ZM48.5 10.16L48.5 10.16Q47.81 10.16 46.96 10.09 46.11 10.01 45.68 9.9L45.68 9.9 45.68 9.34Q46.23 9.45 47.06 9.52 47.88 9.59 48.5 9.59L48.5 9.59Q50.46 9.59 51.71 9 52.97 8.41 53.67 7.18 54.37 5.94 54.65 4L54.65 4 59.26-30 59.93-30 55.3 4.1Q55.02 6.05 54.3 7.41 53.58 8.76 52.2 9.46 50.81 10.16 48.5 10.16ZM48.5 7.86L48.5 7.86Q47.96 7.86 47.18 7.79 46.4 7.73 45.68 7.63L45.68 7.63 45.68 7.06Q46.41 7.15 47.16 7.21 47.91 7.28 48.5 7.28L48.5 7.28Q50.3 7.28 51.04 6.29 51.78 5.31 52.01 3.56L52.01 3.56 52.45 0 50.27 0 46-30 46.66-30 50.82-0.59 53.21-0.59 52.67 3.68Q52.41 5.74 51.49 6.8 50.57 7.86 48.5 7.86ZM48.5 9.01L48.5 9.01Q47.91 9.01 47.1 8.94 46.28 8.88 45.68 8.76L45.68 8.76 45.68 8.2Q46.36 8.3 47.15 8.37 47.93 8.44 48.5 8.44L48.5 8.44Q50.77 8.44 51.88 7.33 53 6.23 53.32 3.78L53.32 3.78 53.97-1.19 51.27-1.19 50.11-8.85 47.33-30 48.01-30 50.67-9.33 51.73-1.78 54.07-1.78 57.92-30 58.6-30 53.98 3.89Q53.65 6.31 52.48 7.66 51.31 9.01 48.5 9.01ZM53.68-2.36L52.18-2.36 51.25-9.78 48.7-30 49.36-30 51.85-10.2 52.67-2.96 53.17-2.96 54.06-10.28 56.57-30 57.25-30 54.62-9.6 53.68-2.36ZM75.52 0L74.85 0 74.85-40 75.52-40 75.52-26.3 75.4-12.45 75.78-12.45 81.6-25.91 83.33-30 84.07-30 78.88-17.89 85.32 0 84.62 0 78.47-17.16 75.52-10.8 75.52 0ZM76.84 0L76.18 0 76.18-10.81 78.37-15.68 83.98 0 83.27 0 78.27-14.09 76.84-10.65 76.84 0ZM74.19 0L73.53 0 73.53-40 74.19-40 74.19 0ZM86.67 0L85.95 0 79.54-17.89 84.74-30 85.5-30 80.27-17.85 86.67 0ZM76.04-14.03L75.77-14.03 76.18-26.8 76.18-40 76.84-40 76.84-27.33 76.35-16.54 76.59-16.54 80.77-27.16 81.85-30 82.62-30 81.27-26.63 76.04-14.03ZM95.35 0.34L95.35 0.34Q92.11 0.34 90.54-1.01 88.98-2.35 88.86-5.73L88.86-5.73Q88.81-7.56 88.78-9.91 88.75-12.25 88.75-14.78 88.75-17.3 88.78-19.74 88.81-22.18 88.88-24.2L88.88-24.2Q88.99-27.46 90.48-28.9 91.98-30.34 95.33-30.34L95.33-30.34Q98.43-30.34 99.93-28.99 101.44-27.64 101.58-24.29L101.58-24.29Q101.61-23.63 101.63-22.57 101.65-21.51 101.65-20.16 101.65-18.81 101.63-17.24 101.6-15.68 101.53-14L101.53-14 92.06-14Q92.06-12.54 92.08-11.16 92.09-9.78 92.11-8.47 92.14-7.18 92.18-5.94L92.18-5.94Q92.24-4 92.93-3.22 93.61-2.44 95.35-2.44L95.35-2.44Q96.95-2.44 97.56-3.16 98.18-3.89 98.26-5.89L98.26-5.89Q98.3-6.69 98.29-7.84 98.28-8.99 98.21-10.3L98.21-10.3 98.88-10.3Q98.94-8.93 98.95-7.81 98.96-6.7 98.93-5.85L98.93-5.85Q98.84-3.59 98.05-2.74 97.26-1.89 95.35-1.89L95.35-1.89Q93.29-1.89 92.43-2.78 91.56-3.66 91.5-5.89L91.5-5.89Q91.48-6.99 91.45-8.49 91.43-10 91.41-11.59 91.4-13.19 91.4-14.55L91.4-14.55 100.9-14.55Q100.95-16.1 100.97-17.57 100.99-19.04 100.99-20.31 100.99-21.59 100.97-22.6 100.95-23.61 100.91-24.28L100.91-24.28Q100.78-27.41 99.39-28.6 98-29.79 95.33-29.79L95.33-29.79Q92.25-29.79 90.94-28.44 89.64-27.1 89.54-24.16L89.54-24.16Q89.48-22.11 89.44-19.71 89.41-17.3 89.41-14.81 89.41-12.33 89.44-10 89.48-7.68 89.53-5.78L89.53-5.78Q89.63-2.69 91.01-1.45 92.4-0.21 95.35-0.21L95.35-0.21Q98.26-0.21 99.52-1.46 100.78-2.71 100.91-5.76L100.91-5.76Q100.94-6.31 100.94-7.05 100.95-7.79 100.93-8.62 100.91-9.45 100.86-10.3L100.86-10.3 101.53-10.3Q101.59-9.15 101.61-7.93 101.63-6.7 101.58-5.73L101.58-5.73Q101.44-2.44 100.02-1.05 98.6 0.34 95.35 0.34ZM95.35-0.78L95.35-0.78Q92.68-0.78 91.48-1.9 90.28-3.03 90.19-5.8L90.19-5.8Q90.13-7.81 90.1-10.22 90.08-12.63 90.08-15.13 90.08-17.64 90.11-19.96 90.14-22.29 90.19-24.11L90.19-24.11Q90.29-26.96 91.52-28.09 92.75-29.23 95.33-29.23L95.33-29.23Q97.73-29.23 98.93-28.16 100.14-27.1 100.25-24.25L100.25-24.25Q100.29-23.51 100.31-22.16 100.34-20.8 100.33-18.99 100.31-17.19 100.25-15.11L100.25-15.11 90.74-15.11Q90.74-12.46 90.76-10.39 90.78-8.31 90.81-5.85L90.81-5.85Q90.85-3.4 91.86-2.36 92.86-1.33 95.35-1.33L95.35-1.33Q97.58-1.33 98.53-2.29 99.48-3.26 99.59-5.81L99.59-5.81Q99.63-6.66 99.61-7.82 99.6-8.97 99.54-10.3L99.54-10.3 100.2-10.3Q100.26-9.04 100.28-7.86 100.29-6.69 100.25-5.79L100.25-5.79Q100.13-2.99 99.04-1.88 97.95-0.78 95.35-0.78ZM90.74-15.66L90.74-15.66 99.6-15.66Q99.65-17.48 99.66-19.16 99.66-20.85 99.64-22.18 99.63-23.51 99.59-24.23L99.59-24.23Q99.49-26.74 98.47-27.71 97.45-28.68 95.33-28.68L95.33-28.68Q93.06-28.68 91.99-27.67 90.93-26.66 90.85-24.09L90.85-24.09Q90.8-22.61 90.78-20.29 90.75-17.96 90.74-15.66ZM98.94-16.23L91.4-16.23Q91.41-17.34 91.42-18.63 91.43-19.93 91.45-21.31 91.48-22.69 91.51-24.05L91.51-24.05Q91.59-26.33 92.47-27.22 93.35-28.11 95.33-28.11L95.33-28.11Q97.2-28.11 98.02-27.24 98.84-26.38 98.93-24.19L98.93-24.19Q98.95-23.58 98.98-22.41 99-21.24 98.99-19.66 98.99-18.07 98.94-16.23L98.94-16.23ZM92.08-16.78L92.08-16.78 98.29-16.78Q98.33-18.41 98.33-19.89 98.34-21.36 98.31-22.48 98.29-23.6 98.26-24.16L98.26-24.16Q98.18-26.1 97.51-26.83 96.84-27.56 95.33-27.56L95.33-27.56Q93.65-27.56 92.94-26.79 92.24-26.01 92.18-24.03L92.18-24.03Q92.15-22.94 92.13-21.79 92.1-20.64 92.09-19.39 92.08-18.15 92.08-16.78ZM112.5 0.34L112.5 0.34Q109.26 0.34 107.69-1.01 106.12-2.35 106.01-5.73L106.01-5.73Q105.96-7.56 105.93-9.91 105.9-12.25 105.9-14.78 105.9-17.3 105.93-19.74 105.96-22.18 106.02-24.2L106.02-24.2Q106.14-27.46 107.63-28.9 109.12-30.34 112.47-30.34L112.47-30.34Q115.57-30.34 117.08-28.99 118.59-27.64 118.72-24.29L118.72-24.29Q118.76-23.63 118.78-22.57 118.8-21.51 118.8-20.16 118.8-18.81 118.77-17.24 118.75-15.68 118.67-14L118.67-14 109.21-14Q109.21-12.54 109.22-11.16 109.24-9.78 109.26-8.47 109.29-7.18 109.32-5.94L109.32-5.94Q109.39-4 110.07-3.22 110.76-2.44 112.5-2.44L112.5-2.44Q114.1-2.44 114.71-3.16 115.32-3.89 115.41-5.89L115.41-5.89Q115.45-6.69 115.44-7.84 115.42-8.99 115.36-10.3L115.36-10.3 116.02-10.3Q116.09-8.93 116.1-7.81 116.11-6.7 116.07-5.85L116.07-5.85Q115.99-3.59 115.2-2.74 114.41-1.89 112.5-1.89L112.5-1.89Q110.44-1.89 109.57-2.78 108.71-3.66 108.65-5.89L108.65-5.89Q108.62-6.99 108.6-8.49 108.57-10 108.56-11.59 108.55-13.19 108.55-14.55L108.55-14.55 118.05-14.55Q118.1-16.1 118.12-17.57 118.14-19.04 118.14-20.31 118.14-21.59 118.12-22.6 118.1-23.61 118.06-24.28L118.06-24.28Q117.92-27.41 116.54-28.6 115.15-29.79 112.47-29.79L112.47-29.79Q109.4-29.79 108.09-28.44 106.79-27.1 106.69-24.16L106.69-24.16Q106.62-22.11 106.59-19.71 106.56-17.3 106.56-14.81 106.56-12.33 106.59-10 106.62-7.68 106.67-5.78L106.67-5.78Q106.77-2.69 108.16-1.45 109.55-0.21 112.5-0.21L112.5-0.21Q115.41-0.21 116.67-1.46 117.92-2.71 118.06-5.76L118.06-5.76Q118.09-6.31 118.09-7.05 118.1-7.79 118.08-8.62 118.06-9.45 118.01-10.3L118.01-10.3 118.67-10.3Q118.74-9.15 118.75-7.93 118.77-6.7 118.72-5.73L118.72-5.73Q118.59-2.44 117.17-1.05 115.75 0.34 112.5 0.34ZM112.5-0.78L112.5-0.78Q109.82-0.78 108.62-1.9 107.42-3.03 107.34-5.8L107.34-5.8Q107.27-7.81 107.25-10.22 107.22-12.63 107.22-15.13 107.22-17.64 107.25-19.96 107.29-22.29 107.34-24.11L107.34-24.11Q107.44-26.96 108.67-28.09 109.9-29.23 112.47-29.23L112.47-29.23Q114.87-29.23 116.08-28.16 117.29-27.1 117.4-24.25L117.4-24.25Q117.44-23.51 117.46-22.16 117.49-20.8 117.47-18.99 117.46-17.19 117.4-15.11L117.4-15.11 107.89-15.11Q107.89-12.46 107.9-10.39 107.92-8.31 107.96-5.85L107.96-5.85Q108-3.4 109-2.36 110.01-1.33 112.5-1.33L112.5-1.33Q114.72-1.33 115.67-2.29 116.62-3.26 116.74-5.81L116.74-5.81Q116.77-6.66 116.76-7.82 116.75-8.97 116.69-10.3L116.69-10.3 117.35-10.3Q117.41-9.04 117.42-7.86 117.44-6.69 117.4-5.79L117.4-5.79Q117.27-2.99 116.19-1.88 115.1-0.78 112.5-0.78ZM107.89-15.66L107.89-15.66 116.75-15.66Q116.8-17.48 116.8-19.16 116.81-20.85 116.79-22.18 116.77-23.51 116.74-24.23L116.74-24.23Q116.64-26.74 115.62-27.71 114.6-28.68 112.47-28.68L112.47-28.68Q110.21-28.68 109.14-27.67 108.07-26.66 108-24.09L108-24.09Q107.95-22.61 107.92-20.29 107.9-17.96 107.89-15.66ZM116.09-16.23L108.55-16.23Q108.56-17.34 108.57-18.63 108.57-19.93 108.6-21.31 108.62-22.69 108.66-24.05L108.66-24.05Q108.74-26.33 109.62-27.22 110.5-28.11 112.47-28.11L112.47-28.11Q114.35-28.11 115.17-27.24 115.99-26.38 116.07-24.19L116.07-24.19Q116.1-23.58 116.12-22.41 116.15-21.24 116.14-19.66 116.14-18.07 116.09-16.23L116.09-16.23ZM109.22-16.78L109.22-16.78 115.44-16.78Q115.47-18.41 115.48-19.89 115.49-21.36 115.46-22.48 115.44-23.6 115.41-24.16L115.41-24.16Q115.32-26.1 114.65-26.83 113.99-27.56 112.47-27.56L112.47-27.56Q110.8-27.56 110.09-26.79 109.39-26.01 109.32-24.03L109.32-24.03Q109.3-22.94 109.27-21.79 109.25-20.64 109.24-19.39 109.22-18.15 109.22-16.78ZM126.83 10L126.13 10 126.13 2.76 125.95-3.34 126.13-3.34Q126.76-1.81 128.09-1.02 129.42-0.23 131.05-0.23L131.05-0.23Q133.78-0.23 134.89-1.83 136-3.44 136.15-6.23L136.15-6.23Q136.3-9.35 136.34-12.25 136.38-15.15 136.34-17.98 136.3-20.8 136.16-23.73L136.16-23.73Q136.01-26.69 134.87-28.24 133.73-29.8 131.13-29.8L131.13-29.8Q129.27-29.8 127.9-28.83 126.52-27.86 125.96-26.4L125.96-26.4 125.8-26.4 126.03-30 126.66-30 126.66-29.68 126.42-28.01 126.56-28.01Q127.25-29.11 128.5-29.73 129.76-30.35 131.26-30.35L131.26-30.35Q134.05-30.35 135.34-28.71 136.63-27.08 136.82-23.73L136.82-23.73Q136.96-21 137-18.15 137.03-15.3 136.99-12.33 136.95-9.36 136.81-6.25L136.81-6.25Q136.63-2.94 135.36-1.31 134.08 0.33 131.27 0.33L131.27 0.33Q129.82 0.33 128.58-0.28 127.35-0.89 126.67-2.02L126.67-2.02 126.51-2.02 126.83 4.85 126.83 10ZM124.2 10L123.53 10 123.53-30 124.2-30 124.2 10ZM125.52 10L124.86 10 124.86-30 125.52-30 125.37-24.39 125.52-24.39Q125.82-26.55 127.26-27.89 128.71-29.24 130.97-29.24L130.97-29.24Q133.21-29.24 134.28-27.89 135.36-26.54 135.51-23.71L135.51-23.71Q135.65-20.86 135.68-18.04 135.72-15.23 135.68-12.31 135.63-9.39 135.5-6.24L135.5-6.24Q135.37-3.6 134.31-2.21 133.26-0.83 130.81-0.79L130.81-0.79Q128.67-0.76 127.33-2.07 126-3.38 125.6-5.38L125.6-5.38 125.43-5.38 125.52 0.34 125.52 10ZM130.71-1.35L130.71-1.35Q132.93-1.35 133.83-2.64 134.73-3.93 134.83-6.18L134.83-6.18Q134.98-10.41 135.01-14.71 135.03-19 134.86-23.66L134.86-23.66Q134.76-26.26 133.77-27.48 132.78-28.69 130.68-28.69L130.68-28.69Q129.03-28.69 127.95-27.94 126.86-27.2 126.3-26.01 125.75-24.83 125.68-23.51L125.68-23.51Q125.58-20.36 125.55-17.4 125.51-14.44 125.55-11.69 125.58-8.94 125.68-6.43L125.68-6.43Q125.75-5.15 126.31-3.99 126.87-2.83 127.96-2.09 129.06-1.35 130.71-1.35ZM130.62-1.89L130.62-1.89Q128.43-1.89 127.41-3.24 126.4-4.59 126.32-6.4L126.32-6.4Q126.22-9.08 126.18-11.89 126.15-14.7 126.18-17.61 126.22-20.53 126.32-23.5L126.32-23.5Q126.4-25.43 127.41-26.77 128.43-28.11 130.53-28.11L130.53-28.11Q132.43-28.11 133.28-27 134.12-25.89 134.2-23.7L134.2-23.7Q134.31-20.71 134.33-17.88 134.35-15.04 134.31-12.18 134.27-9.31 134.18-6.25L134.18-6.25Q134.11-4.1 133.3-2.99 132.48-1.89 130.62-1.89ZM130.61-2.44L130.61-2.44Q132.07-2.44 132.76-3.38 133.45-4.31 133.52-6.28L133.52-6.28Q133.68-10.83 133.69-14.95 133.7-19.07 133.53-23.7L133.53-23.7Q133.47-25.59 132.78-26.58 132.08-27.56 130.52-27.56L130.52-27.56Q128.73-27.56 127.9-26.36 127.06-25.15 126.98-23.5L126.98-23.5Q126.88-20.76 126.85-17.89 126.81-15.03 126.85-12.13 126.88-9.24 126.98-6.4L126.98-6.4Q127.05-4.78 127.92-3.61 128.8-2.44 130.61-2.44ZM153.33 10.16L153.33 10.16Q152.64 10.16 151.79 10.09 150.94 10.01 150.52 9.9L150.52 9.9 150.52 9.34Q151.07 9.45 151.89 9.52 152.72 9.59 153.33 9.59L153.33 9.59Q155.29 9.59 156.55 9 157.8 8.41 158.5 7.18 159.2 5.94 159.48 4L159.48 4 164.09-30 164.77-30 160.13 4.1Q159.85 6.05 159.13 7.41 158.42 8.76 157.03 9.46 155.64 10.16 153.33 10.16ZM153.33 7.86L153.33 7.86Q152.79 7.86 152.01 7.79 151.23 7.73 150.52 7.63L150.52 7.63 150.52 7.06Q151.24 7.15 151.99 7.21 152.74 7.28 153.33 7.28L153.33 7.28Q155.13 7.28 155.87 6.29 156.62 5.31 156.84 3.56L156.84 3.56 157.28 0 155.1 0 150.83-30 151.49-30 155.65-0.59 158.04-0.59 157.5 3.68Q157.24 5.74 156.32 6.8 155.4 7.86 153.33 7.86ZM153.33 9.01L153.33 9.01Q152.74 9.01 151.93 8.94 151.12 8.88 150.52 8.76L150.52 8.76 150.52 8.2Q151.19 8.3 151.98 8.37 152.77 8.44 153.33 8.44L153.33 8.44Q155.6 8.44 156.72 7.33 157.83 6.23 158.15 3.78L158.15 3.78 158.8-1.19 156.1-1.19 154.94-8.85 152.17-30 152.84-30 155.5-9.33 156.57-1.78 158.9-1.78 162.75-30 163.43-30 158.82 3.89Q158.48 6.31 157.31 7.66 156.14 9.01 153.33 9.01ZM158.52-2.36L157.02-2.36 156.08-9.78 153.53-30 154.19-30 156.68-10.2 157.5-2.96 158-2.96 158.89-10.28 161.4-30 162.08-30 159.45-9.6 158.52-2.36ZM174.49 0.34L174.49 0.34Q171.14 0.34 169.63-1.19 168.13-2.71 168-6.13L168-6.13Q167.89-9.28 167.85-12.19 167.81-15.11 167.85-18 167.89-20.89 167.99-23.91L167.99-23.91Q168.14-27.49 169.73-28.91 171.33-30.34 174.49-30.34L174.49-30.34Q177.85-30.34 179.34-28.81 180.83-27.28 180.96-23.86L180.96-23.86Q181.14-19.15 181.13-14.88 181.13-10.61 180.96-6.09L180.96-6.09Q180.83-2.53 179.23-1.09 177.64 0.34 174.49 0.34ZM174.49-0.21L174.49-0.21Q177.25-0.21 178.71-1.49 180.16-2.78 180.3-6.09L180.3-6.09Q180.46-10.6 180.46-14.8 180.46-19 180.29-23.83L180.29-23.83Q180.19-26.89 178.89-28.34 177.59-29.79 174.49-29.79L174.49-29.79Q171.55-29.79 170.16-28.41 168.78-27.04 168.65-23.78L168.65-23.78Q168.55-21.09 168.51-18.26 168.48-15.43 168.51-12.4 168.55-9.38 168.66-6.1L168.66-6.1Q168.78-2.78 170.24-1.49 171.71-0.21 174.49-0.21ZM174.49-0.78L174.49-0.78Q171.85-0.78 170.64-2.04 169.43-3.3 169.31-6.25L169.31-6.25Q169.23-8.94 169.18-11.85 169.14-14.76 169.17-17.78 169.2-20.79 169.31-23.76L169.31-23.76Q169.43-26.76 170.67-27.99 171.91-29.23 174.49-29.23L174.49-29.23Q176.94-29.23 178.23-28.05 179.53-26.88 179.63-23.88L179.63-23.88Q179.74-20.84 179.78-17.92 179.81-15 179.78-12.11 179.75-9.21 179.65-6.24L179.65-6.24Q179.54-3.24 178.29-2.01 177.05-0.78 174.49-0.78ZM174.49-1.33L174.49-1.33Q176.7-1.33 177.79-2.43 178.88-3.54 178.99-6.25L178.99-6.25Q179.11-10.05 179.13-14.5 179.15-18.95 178.98-23.73L178.98-23.73Q178.88-26.49 177.77-27.58 176.66-28.68 174.49-28.68L174.49-28.68Q172.26-28.68 171.18-27.57 170.09-26.46 169.98-23.74L169.98-23.74Q169.89-21.19 169.84-18.36 169.8-15.53 169.83-12.48 169.86-9.44 169.98-6.25L169.98-6.25Q170.08-3.46 171.21-2.39 172.34-1.33 174.49-1.33ZM174.49-1.89L174.49-1.89Q172.68-1.89 171.7-2.83 170.73-3.78 170.64-6.26L170.64-6.26Q170.54-9.22 170.5-12.1 170.46-14.98 170.5-17.86 170.54-20.74 170.64-23.7L170.64-23.7Q170.73-26.09 171.64-27.1 172.55-28.11 174.49-28.11L174.49-28.11Q176.3-28.11 177.26-27.17 178.23-26.23 178.31-23.73L178.31-23.73Q178.46-19.35 178.47-14.92 178.48-10.49 178.31-6.29L178.31-6.29Q178.23-3.86 177.3-2.88 176.38-1.89 174.49-1.89ZM174.49-2.44L174.49-2.44Q176.1-2.44 176.84-3.34 177.59-4.25 177.65-6.31L177.65-6.31Q177.79-10.28 177.81-14.58 177.83-18.89 177.65-23.7L177.65-23.7Q177.59-25.86 176.79-26.71 176-27.56 174.49-27.56L174.49-27.56Q172.85-27.56 172.11-26.64 171.38-25.73 171.3-23.68L171.3-23.68Q171.2-20.78 171.16-17.99 171.13-15.2 171.16-12.33 171.2-9.46 171.3-6.29L171.3-6.29Q171.36-4.11 172.17-3.28 172.98-2.44 174.49-2.44ZM191.39 0.35L191.39 0.35Q189.89 0.35 188.89-0.05 187.89-0.45 187.29-1.13 186.7-1.81 186.4-2.66 186.1-3.5 186-4.39 185.91-5.29 185.91-6.11L185.91-6.11 185.91-30 186.57-30 186.57-6.23Q186.57-5.25 186.72-4.19 186.86-3.14 187.35-2.24 187.85-1.35 188.85-0.79 189.85-0.24 191.56-0.24L191.56-0.24Q193.35-0.24 194.64-1.09 195.92-1.94 196.7-3.48L196.7-3.48 196.89-3.48 196.56-0.59 196.56 0 195.89 0 195.87-0.28 196.31-2.29 196.17-2.29Q195.39-1.03 194.19-0.34 192.99 0.35 191.39 0.35ZM199.14 0L198.47 0 198.47-30 199.14-30 199.14 0ZM192.06-2.09L192.06-2.09Q190.87-2.09 190.17-2.47 189.47-2.85 189.13-3.48 188.79-4.11 188.67-4.89 188.56-5.66 188.56-6.44L188.56-6.44 188.56-30 189.22-30 189.22-6.48Q189.22-5.5 189.41-4.63 189.6-3.76 190.22-3.22 190.84-2.68 192.15-2.68L192.15-2.68Q193.4-2.68 194.2-3.24 195.01-3.8 195.4-4.71 195.8-5.63 195.8-6.66L195.8-6.66 195.8-30 196.49-30 196.49-6.7Q196.49-5.53 196-4.46 195.52-3.4 194.55-2.74 193.57-2.09 192.06-2.09ZM191.72-0.85L191.72-0.85Q189.21-0.86 188.22-2.24 187.24-3.63 187.24-6.26L187.24-6.26 187.24-30 187.9-30 187.9-6.34Q187.9-4.03 188.74-2.73 189.59-1.44 191.94-1.44L191.94-1.44Q193.7-1.44 194.85-2.26 196.01-3.08 196.58-4.3 197.15-5.53 197.15-6.76L197.15-6.76 197.15-30 197.81-30 197.81 0 197.15 0 197.15-1.6 197.31-5.03 197.12-5.03Q196.56-3.25 195.19-2.04 193.82-0.83 191.72-0.85ZM206.61 0L205.93 0 205.93-30 206.6-30 206.6-28.4 206.45-24.98 206.62-24.98Q207.26-26.85 208.63-27.86 210.01-28.88 212.08-28.88L212.08-28.88Q212.6-28.88 213.12-28.86 213.65-28.85 213.97-28.84L213.97-28.84 213.97-28.24Q213.62-28.26 213.06-28.27 212.51-28.28 211.97-28.28L211.97-28.28Q210.15-28.28 208.95-27.51 207.76-26.75 207.18-25.59 206.61-24.44 206.61-23.24L206.61-23.24 206.61 0ZM205.27 0L204.61 0 204.61-30 205.27-30 205.27 0ZM207.97 0L207.27 0 207.27-23.3Q207.27-25.09 208.4-26.36 209.52-27.64 211.72-27.64L211.72-27.64Q212.3-27.64 212.87-27.64 213.45-27.64 213.97-27.64L213.97-27.64 213.97-27.04Q213.45-27.04 212.86-27.04 212.28-27.04 211.72-27.04L211.72-27.04Q209.77-27.04 208.87-25.98 207.97-24.91 207.97-23.34L207.97-23.34 207.97 0ZM207.07-26.53L206.87-26.53 207.25-29.41 207.25-30 207.92-30 207.92-29.78 207.45-27.71 207.57-27.71Q208.25-28.86 209.57-29.46 210.9-30.06 212.33-30.06L212.33-30.06Q212.68-30.06 213.08-30.06 213.48-30.05 213.97-30.01L213.97-30.01 213.97-29.43Q213.55-29.45 213.15-29.46 212.76-29.48 212.37-29.48L212.37-29.48Q210.57-29.48 209.21-28.78 207.85-28.09 207.07-26.53L207.07-26.53ZM249.99 0L249.33 0 249.33-23.78Q249.33-25.68 248.94-27.01 248.55-28.35 247.53-29.06 246.5-29.76 244.55-29.76L244.55-29.76Q242.75-29.76 241.39-28.89 240.03-28.01 239.3-26.53L239.3-26.53 239.14-26.53Q238.75-28.28 237.7-29.02 236.65-29.76 234.67-29.76L234.67-29.76Q232.87-29.76 231.58-28.93 230.3-28.09 229.53-26.53L229.53-26.53 229.33-26.53 229.65-30 230.33-30 230.33-29.69 229.88-27.71 230.03-27.71Q230.78-28.96 232-29.66 233.22-30.35 234.84-30.35L234.84-30.35Q236.75-30.35 237.83-29.74 238.9-29.13 239.47-27.71L239.47-27.71 239.65-27.71Q240.52-29.01 241.84-29.68 243.17-30.35 244.73-30.35L244.73-30.35Q246.87-30.35 248-29.59 249.14-28.83 249.57-27.38 249.99-25.94 249.99-23.89L249.99-23.89 249.99 0ZM227.73 0L227.07 0 227.07-30 227.73-30 227.73 0ZM230.42 0L229.73 0 229.73-23.3Q229.73-24.48 230.21-25.53 230.69-26.59 231.67-27.25 232.65-27.91 234.17-27.91L234.17-27.91Q236.22-27.91 236.9-26.78 237.58-25.64 237.58-23.56L237.58-23.56 237.58 0 236.92 0 236.92-23.53Q236.92-25.35 236.35-26.34 235.79-27.33 234.08-27.33L234.08-27.33Q232.83-27.33 232.02-26.76 231.22-26.2 230.82-25.29 230.42-24.39 230.42-23.34L230.42-23.34 230.42 0ZM229.07 0L228.39 0 228.39-30 229.05-30 228.9-24.98 229.08-24.98Q229.69-26.86 231.07-28.01 232.44-29.16 234.5-29.15L234.5-29.15Q236.63-29.15 237.59-28.18 238.55-27.2 238.74-24.98L238.74-24.98 238.89-24.98Q239.5-26.85 240.9-28.01 242.29-29.18 244.35-29.15L244.35-29.15Q246.08-29.15 247.01-28.53 247.94-27.9 248.3-26.7 248.67-25.5 248.67-23.74L248.67-23.74 248.67 0 248 0 248-23.66Q248-26.03 247.25-27.29 246.49-28.56 244.14-28.56L244.14-28.56Q242.38-28.56 241.21-27.74 240.04-26.93 239.48-25.7 238.92-24.48 238.92-23.24L238.92-23.24 238.92 0 238.24 0 238.24-23.66Q238.24-26.03 237.45-27.29 236.65-28.56 234.29-28.56L234.29-28.56Q232.53-28.56 231.37-27.74 230.2-26.93 229.63-25.7 229.07-24.48 229.07-23.24L229.07-23.24 229.07 0ZM240.23 0L239.58 0 239.58-23.29Q239.58-24.48 240.06-25.53 240.54-26.59 241.52-27.25 242.5-27.91 244.02-27.91L244.02-27.91Q245.39-27.91 246.1-27.41 246.82-26.9 247.08-25.93 247.34-24.95 247.34-23.56L247.34-23.56 247.34 0 246.68 0 246.68-23.53Q246.68-25.28 246.18-26.3 245.68-27.33 243.93-27.33L243.93-27.33Q242.68-27.33 241.86-26.76 241.04-26.2 240.63-25.29 240.23-24.39 240.23-23.34L240.23-23.34 240.23 0ZM261.49 0.34L261.49 0.34Q258.14 0.34 256.63-1.19 255.13-2.71 255-6.13L255-6.13Q254.89-9.28 254.85-12.19 254.81-15.11 254.85-18 254.89-20.89 254.99-23.91L254.99-23.91Q255.14-27.49 256.73-28.91 258.33-30.34 261.49-30.34L261.49-30.34Q264.85-30.34 266.34-28.81 267.83-27.28 267.96-23.86L267.96-23.86Q268.14-19.15 268.13-14.88 268.13-10.61 267.96-6.09L267.96-6.09Q267.83-2.53 266.23-1.09 264.64 0.34 261.49 0.34ZM261.49-0.21L261.49-0.21Q264.25-0.21 265.71-1.49 267.16-2.78 267.3-6.09L267.3-6.09Q267.46-10.6 267.46-14.8 267.46-19 267.29-23.83L267.29-23.83Q267.19-26.89 265.89-28.34 264.59-29.79 261.49-29.79L261.49-29.79Q258.55-29.79 257.16-28.41 255.78-27.04 255.65-23.78L255.65-23.78Q255.55-21.09 255.51-18.26 255.48-15.43 255.51-12.4 255.55-9.38 255.66-6.1L255.66-6.1Q255.78-2.78 257.24-1.49 258.71-0.21 261.49-0.21ZM261.49-0.78L261.49-0.78Q258.85-0.78 257.64-2.04 256.43-3.3 256.31-6.25L256.31-6.25Q256.23-8.94 256.18-11.85 256.14-14.76 256.17-17.78 256.2-20.79 256.31-23.76L256.31-23.76Q256.43-26.76 257.67-27.99 258.91-29.23 261.49-29.23L261.49-29.23Q263.94-29.23 265.23-28.05 266.53-26.88 266.63-23.88L266.63-23.88Q266.74-20.84 266.78-17.92 266.81-15 266.78-12.11 266.75-9.21 266.65-6.24L266.65-6.24Q266.54-3.24 265.29-2.01 264.05-0.78 261.49-0.78ZM261.49-1.33L261.49-1.33Q263.7-1.33 264.79-2.43 265.88-3.54 265.99-6.25L265.99-6.25Q266.11-10.05 266.13-14.5 266.15-18.95 265.98-23.73L265.98-23.73Q265.88-26.49 264.77-27.58 263.66-28.68 261.49-28.68L261.49-28.68Q259.26-28.68 258.18-27.57 257.09-26.46 256.98-23.74L256.98-23.74Q256.89-21.19 256.84-18.36 256.8-15.53 256.83-12.48 256.86-9.44 256.98-6.25L256.98-6.25Q257.08-3.46 258.21-2.39 259.34-1.33 261.49-1.33ZM261.49-1.89L261.49-1.89Q259.68-1.89 258.7-2.83 257.73-3.78 257.64-6.26L257.64-6.26Q257.54-9.22 257.5-12.1 257.46-14.98 257.5-17.86 257.54-20.74 257.64-23.7L257.64-23.7Q257.73-26.09 258.64-27.1 259.55-28.11 261.49-28.11L261.49-28.11Q263.3-28.11 264.26-27.17 265.23-26.23 265.31-23.73L265.31-23.73Q265.46-19.35 265.47-14.92 265.48-10.49 265.31-6.29L265.31-6.29Q265.23-3.86 264.3-2.88 263.38-1.89 261.49-1.89ZM261.49-2.44L261.49-2.44Q263.1-2.44 263.84-3.34 264.59-4.25 264.65-6.31L264.65-6.31Q264.79-10.28 264.81-14.58 264.83-18.89 264.65-23.7L264.65-23.7Q264.59-25.86 263.79-26.71 263-27.56 261.49-27.56L261.49-27.56Q259.85-27.56 259.11-26.64 258.38-25.73 258.3-23.68L258.3-23.68Q258.2-20.78 258.16-17.99 258.13-15.2 258.16-12.33 258.2-9.46 258.3-6.29L258.3-6.29Q258.36-4.11 259.17-3.28 259.98-2.44 261.49-2.44ZM278.39 0.35L278.39 0.35Q276.89 0.35 275.89-0.05 274.89-0.45 274.29-1.13 273.7-1.81 273.4-2.66 273.1-3.5 273-4.39 272.91-5.29 272.91-6.11L272.91-6.11 272.91-30 273.57-30 273.57-6.23Q273.57-5.25 273.72-4.19 273.86-3.14 274.35-2.24 274.85-1.35 275.85-0.79 276.85-0.24 278.56-0.24L278.56-0.24Q280.35-0.24 281.64-1.09 282.92-1.94 283.7-3.48L283.7-3.48 283.89-3.48 283.56-0.59 283.56 0 282.89 0 282.87-0.28 283.31-2.29 283.17-2.29Q282.39-1.03 281.19-0.34 279.99 0.35 278.39 0.35ZM286.14 0L285.47 0 285.47-30 286.14-30 286.14 0ZM279.06-2.09L279.06-2.09Q277.87-2.09 277.17-2.47 276.47-2.85 276.13-3.48 275.79-4.11 275.67-4.89 275.56-5.66 275.56-6.44L275.56-6.44 275.56-30 276.22-30 276.22-6.48Q276.22-5.5 276.41-4.63 276.6-3.76 277.22-3.22 277.84-2.68 279.15-2.68L279.15-2.68Q280.4-2.68 281.2-3.24 282.01-3.8 282.4-4.71 282.8-5.63 282.8-6.66L282.8-6.66 282.8-30 283.49-30 283.49-6.7Q283.49-5.53 283-4.46 282.52-3.4 281.55-2.74 280.57-2.09 279.06-2.09ZM278.72-0.85L278.72-0.85Q276.21-0.86 275.22-2.24 274.24-3.63 274.24-6.26L274.24-6.26 274.24-30 274.9-30 274.9-6.34Q274.9-4.03 275.74-2.73 276.59-1.44 278.94-1.44L278.94-1.44Q280.7-1.44 281.85-2.26 283.01-3.08 283.58-4.3 284.15-5.53 284.15-6.76L284.15-6.76 284.15-30 284.81-30 284.81 0 284.15 0 284.15-1.6 284.31-5.03 284.12-5.03Q283.56-3.25 282.19-2.04 280.82-0.83 278.72-0.85ZM298.21-0.85L298.21-0.85Q295.25-0.85 294.33-2.04 293.41-3.24 293.41-5.73L293.41-5.73 293.41-28.23 290.05-28.23 290.05-28.81 293.41-28.81 293.41-38.5 294.08-38.5 294.08-28.81 299.95-28.81 299.95-28.23 294.08-28.23 294.08-5.73Q294.08-3.44 294.89-2.44 295.7-1.44 298.21-1.44L298.21-1.44Q298.73-1.44 299.3-1.48 299.87-1.53 300.45-1.61L300.45-1.61 300.45-1.04Q299.95-0.94 299.36-0.89 298.78-0.85 298.21-0.85ZM298.21 0.34L298.21 0.34Q294.71 0.34 293.4-1.07 292.08-2.49 292.08-5.73L292.08-5.73 292.08-27.04 290.05-27.04 290.05-27.64 292.75-27.64 292.75-5.73Q292.75-2.88 293.85-1.56 294.95-0.25 298.21-0.25L298.21-0.25Q298.78-0.25 299.36-0.3 299.95-0.35 300.45-0.48L300.45-0.48 300.45 0.1Q299.56 0.34 298.21 0.34ZM298.21-2.02L298.21-2.02Q296.05-2.02 295.4-2.87 294.75-3.71 294.75-5.73L294.75-5.73 294.75-27.64 299.95-27.64 299.95-27.04 295.41-27.04 295.41-5.73Q295.41-3.99 295.91-3.3 296.42-2.61 298.21-2.61L298.21-2.61Q298.87-2.61 299.45-2.65 300.03-2.69 300.45-2.76L300.45-2.76 300.45-2.2Q299.97-2.11 299.4-2.07 298.82-2.02 298.21-2.02ZM292.75-29.41L290.05-29.41 290.05-30 292.08-30 292.08-38.5 292.75-38.5 292.75-29.41ZM299.95-29.41L294.75-29.41 294.75-38.5 295.41-38.5 295.41-30 299.95-30 299.95-29.41ZM317.37 0L316.71 0 316.71-23.78Q316.71-25.69 316.27-27.03 315.84-28.36 314.76-29.06 313.68-29.76 311.72-29.76L311.72-29.76Q309.94-29.76 308.66-28.93 307.37-28.09 306.59-26.53L306.59-26.53 306.42-26.53 306.71-32.74 306.71-40 307.38-40 307.38-34.8 306.94-27.71 307.07-27.71Q307.83-28.96 309.06-29.66 310.28-30.35 311.89-30.35L311.89-30.35Q314.06-30.35 315.24-29.59 316.42-28.84 316.89-27.39 317.37-25.95 317.37-23.89L317.37-23.89 317.37 0ZM304.81 0L304.14 0 304.14-40 304.81-40 304.81 0ZM307.48 0L306.79 0 306.79-23.3Q306.79-24.48 307.27-25.53 307.76-26.59 308.74-27.25 309.72-27.91 311.22-27.91L311.22-27.91Q313.29-27.91 314.01-26.78 314.73-25.65 314.73-23.56L314.73-23.56 314.73 0 314.07 0 314.07-23.53Q314.07-25.29 313.48-26.31 312.89-27.33 311.13-27.33L311.13-27.33Q309.89-27.33 309.08-26.76 308.27-26.2 307.87-25.29 307.48-24.39 307.48-23.34L307.48-23.34 307.48 0ZM306.13 0L305.47 0 305.47-40 306.11-40 306.11-30.13 305.98-24.98 306.16-24.98Q306.78-26.93 308.16-28.05 309.53-29.18 311.56-29.15L311.56-29.15Q314.27-29.14 315.16-27.69 316.04-26.25 316.04-23.74L316.04-23.74 316.04 0 315.38 0 315.38-23.66Q315.38-26.03 314.55-27.29 313.72-28.56 311.36-28.56L311.36-28.56Q309.59-28.56 308.44-27.74 307.28-26.91 306.71-25.68 306.13-24.45 306.13-23.24L306.13-23.24 306.13 0ZM340.48 0L334.7 0 331.46-30 332.13-30 335.28-0.53 339.93-0.53 341.05-12.45 342.24-27.66 344.09-27.66 345.25-12.43 346.36-0.53 351.01-0.53 354.19-30 354.85-30 351.59 0 345.81 0 344.69-12.34 343.53-27.15 342.8-27.15 341.63-12.34 340.48 0ZM339.33-1.04L335.76-1.04 334.64-12.48 332.78-30 333.44-30 335.2-12.84 336.29-1.56 338.78-1.56 339.83-12.91 341.3-28.71 345.03-28.71 346.49-12.89 347.51-1.56 350-1.56 351.09-12.73 352.88-30 353.54-30 351.65-12.36 350.54-1.04 346.96-1.04 345.89-12.54 344.55-28.19 341.78-28.19 340.44-12.55 339.33-1.04ZM338.33-2.09L336.7-2.09 335.73-13.23 334.1-30 334.75-30 336.28-13.83 337.25-2.6 337.8-2.6 338.81-13.85 340.33-29.75 346-29.75 347.5-13.85 348.49-2.6 349.04-2.6 350.01-13.75 351.58-30 352.23-30 350.58-13.15 349.59-2.09 347.98-2.09 346.99-13.29 345.48-29.23 340.86-29.23 339.31-13.29 338.33-2.09ZM370.71 0L370.05 0 370.05-23.74Q370.05-26.98 368.8-28.38 367.56-29.79 364.7-29.79L364.7-29.79Q361.74-29.79 360.4-28.51 359.07-27.24 358.96-24.29L358.96-24.29Q358.92-23.28 358.94-22.09 358.96-20.91 359.01-19.78L359.01-19.78 358.35-19.78Q358.3-20.95 358.28-22.1 358.26-23.25 358.3-24.31L358.3-24.31Q358.41-27.54 359.9-28.94 361.4-30.34 364.7-30.34L364.7-30.34Q366.85-30.34 368.17-29.67 369.49-29 370.1-27.55 370.71-26.1 370.71-23.74L370.71-23.74 370.71 0ZM363.56-1.3L363.56-1.3Q365.2-1.3 366.34-2.15 367.49-3 368.09-4.27 368.7-5.54 368.7-6.76L368.7-6.76 368.7-16.73Q367.6-16.31 366.27-15.71 364.94-15.11 363.75-14.46L363.75-14.46Q361.74-13.31 360.8-11.74 359.86-10.18 359.76-7.65L359.76-7.65Q359.74-7.08 359.76-6.56 359.79-6.05 359.82-5.49L359.82-5.49Q359.95-3.41 360.94-2.36 361.94-1.3 363.56-1.3ZM363.7-1.89L363.7-1.89Q362.24-1.89 361.44-2.89 360.63-3.9 360.49-5.53L360.49-5.53Q360.44-6.15 360.42-6.68 360.41-7.2 360.42-7.6L360.42-7.6Q360.52-9.95 361.35-11.41 362.19-12.86 363.99-13.95L363.99-13.95Q364.85-14.48 365.92-15.02 367-15.56 368.04-16L368.04-16 368.04-6.7Q368.04-5.53 367.57-4.42 367.11-3.31 366.15-2.6 365.2-1.89 363.7-1.89ZM363.79-2.43L363.79-2.43Q365.02-2.43 365.82-3.05 366.62-3.68 367-4.64 367.37-5.61 367.37-6.66L367.37-6.66 367.37-15.24Q366.55-14.84 365.77-14.41 365-13.98 364.22-13.45L364.22-13.45Q362.62-12.39 361.88-11.09 361.15-9.8 361.09-7.61L361.09-7.61Q361.07-7.15 361.09-6.64 361.1-6.14 361.13-5.6L361.13-5.6Q361.24-4.23 361.9-3.33 362.57-2.43 363.79-2.43ZM363.02 0.35L363.02 0.35Q360.67 0.35 359.34-1.14 358.01-2.64 357.84-5.34L357.84-5.34Q357.79-6.08 357.77-6.75 357.76-7.43 357.79-7.88L357.79-7.88Q357.94-10.54 359.05-12.49 360.17-14.44 362.99-16L362.99-16Q363.85-16.49 364.55-16.88 365.26-17.26 365.95-17.59 366.63-17.91 367.4-18.21L367.4-18.21 367.4-23.74Q367.4-25.56 366.85-26.56 366.31-27.56 364.7-27.56L364.7-27.56Q363.05-27.56 362.36-26.74 361.67-25.93 361.61-24.18L361.61-24.18Q361.59-23.38 361.59-22.29 361.6-21.21 361.65-19.78L361.65-19.78 360.99-19.78Q360.94-21.28 360.93-22.31 360.92-23.35 360.95-24.23L360.95-24.23Q361.02-26.33 361.9-27.22 362.79-28.11 364.7-28.11L364.7-28.11Q366.65-28.11 367.35-27 368.06-25.89 368.06-23.74L368.06-23.74 368.06-17.76Q366.72-17.26 365.52-16.68 364.32-16.09 363.22-15.48L363.22-15.48Q360.6-14.04 359.59-12.19 358.59-10.34 358.45-7.83L358.45-7.83Q358.42-7.21 358.44-6.64 358.45-6.08 358.5-5.39L358.5-5.39Q358.66-2.88 359.88-1.54 361.1-0.2 363.2-0.2L363.2-0.2Q365.02-0.2 366.3-1.11 367.59-2.02 368.26-3.48L368.26-3.48 368.41-3.48 368.13-0.59 368.13 0 367.46 0 367.46-0.23 367.86-2.29 367.74-2.29Q366.96-1.04 365.79-0.34 364.61 0.35 363.02 0.35ZM369.38 0L368.72 0 368.72-1.6 368.85-5.03 368.7-5.03Q368.13-3.23 366.79-1.99 365.45-0.75 363.36-0.75L363.36-0.75Q361.51-0.75 360.41-1.96 359.31-3.16 359.16-5.43L359.16-5.43Q359.11-6.14 359.1-6.68 359.09-7.23 359.11-7.78L359.11-7.78Q359.24-10.15 360.15-11.9 361.07-13.65 363.49-14.96L363.49-14.96Q364.36-15.44 365.3-15.88 366.25-16.31 367.14-16.68 368.04-17.05 368.72-17.29L368.72-17.29 368.72-23.74Q368.72-26.39 367.79-27.53 366.86-28.68 364.7-28.68L364.7-28.68Q362.42-28.68 361.4-27.65 360.37-26.63 360.29-24.24L360.29-24.24Q360.25-23.23 360.27-22.05 360.29-20.88 360.32-19.78L360.32-19.78 359.67-19.78Q359.62-20.9 359.6-22.09 359.59-23.29 359.62-24.26L359.62-24.26Q359.72-26.93 360.9-28.08 362.07-29.23 364.7-29.23L364.7-29.23Q367.21-29.23 368.3-27.95 369.38-26.68 369.38-23.74L369.38-23.74 369.38 0ZM382.63-0.85L382.63-0.85Q379.67-0.85 378.75-2.04 377.83-3.24 377.83-5.73L377.83-5.73 377.83-28.23 374.47-28.23 374.47-28.81 377.83-28.81 377.83-38.5 378.51-38.5 378.51-28.81 384.37-28.81 384.37-28.23 378.51-28.23 378.51-5.73Q378.51-3.44 379.31-2.44 380.12-1.44 382.63-1.44L382.63-1.44Q383.16-1.44 383.73-1.48 384.3-1.53 384.87-1.61L384.87-1.61 384.87-1.04Q384.37-0.94 383.79-0.89 383.21-0.85 382.63-0.85ZM382.63 0.34L382.63 0.34Q379.13 0.34 377.82-1.07 376.51-2.49 376.51-5.73L376.51-5.73 376.51-27.04 374.47-27.04 374.47-27.64 377.17-27.64 377.17-5.73Q377.17-2.88 378.27-1.56 379.37-0.25 382.63-0.25L382.63-0.25Q383.21-0.25 383.79-0.3 384.37-0.35 384.87-0.48L384.87-0.48 384.87 0.1Q383.98 0.34 382.63 0.34ZM382.63-2.02L382.63-2.02Q380.47-2.02 379.82-2.87 379.17-3.71 379.17-5.73L379.17-5.73 379.17-27.64 384.37-27.64 384.37-27.04 379.83-27.04 379.83-5.73Q379.83-3.99 380.34-3.3 380.85-2.61 382.63-2.61L382.63-2.61Q383.3-2.61 383.88-2.65 384.46-2.69 384.87-2.76L384.87-2.76 384.87-2.2Q384.4-2.11 383.82-2.07 383.25-2.02 382.63-2.02ZM377.17-29.41L374.47-29.41 374.47-30 376.51-30 376.51-38.5 377.17-38.5 377.17-29.41ZM384.37-29.41L379.17-29.41 379.17-38.5 379.83-38.5 379.83-30 384.37-30 384.37-29.41ZM394.63 0.34L394.63 0.34Q391.39 0.34 389.82-1.01 388.26-2.35 388.14-5.73L388.14-5.73Q388.09-7.56 388.06-9.91 388.03-12.25 388.03-14.78 388.03-17.3 388.06-19.74 388.09-22.18 388.16-24.2L388.16-24.2Q388.27-27.46 389.76-28.9 391.26-30.34 394.61-30.34L394.61-30.34Q397.71-30.34 399.21-28.99 400.72-27.64 400.86-24.29L400.86-24.29Q400.89-23.63 400.91-22.57 400.93-21.51 400.93-20.16 400.93-18.81 400.91-17.24 400.88-15.68 400.81-14L400.81-14 391.34-14Q391.34-12.54 391.36-11.16 391.37-9.78 391.39-8.47 391.42-7.18 391.46-5.94L391.46-5.94Q391.52-4 392.21-3.22 392.89-2.44 394.63-2.44L394.63-2.44Q396.23-2.44 396.84-3.16 397.46-3.89 397.54-5.89L397.54-5.89Q397.58-6.69 397.57-7.84 397.56-8.99 397.49-10.3L397.49-10.3 398.16-10.3Q398.22-8.93 398.23-7.81 398.24-6.7 398.21-5.85L398.21-5.85Q398.12-3.59 397.33-2.74 396.54-1.89 394.63-1.89L394.63-1.89Q392.57-1.89 391.71-2.78 390.84-3.66 390.78-5.89L390.78-5.89Q390.76-6.99 390.73-8.49 390.71-10 390.69-11.59 390.68-13.19 390.68-14.55L390.68-14.55 400.18-14.55Q400.23-16.1 400.25-17.57 400.27-19.04 400.27-20.31 400.27-21.59 400.25-22.6 400.23-23.61 400.19-24.28L400.19-24.28Q400.06-27.41 398.67-28.6 397.28-29.79 394.61-29.79L394.61-29.79Q391.53-29.79 390.22-28.44 388.92-27.1 388.82-24.16L388.82-24.16Q388.76-22.11 388.72-19.71 388.69-17.3 388.69-14.81 388.69-12.33 388.72-10 388.76-7.68 388.81-5.78L388.81-5.78Q388.91-2.69 390.29-1.45 391.68-0.21 394.63-0.21L394.63-0.21Q397.54-0.21 398.8-1.46 400.06-2.71 400.19-5.76L400.19-5.76Q400.22-6.31 400.22-7.05 400.23-7.79 400.21-8.62 400.19-9.45 400.14-10.3L400.14-10.3 400.81-10.3Q400.87-9.15 400.89-7.93 400.91-6.7 400.86-5.73L400.86-5.73Q400.72-2.44 399.3-1.05 397.88 0.34 394.63 0.34ZM394.63-0.78L394.63-0.78Q391.96-0.78 390.76-1.9 389.56-3.03 389.47-5.8L389.47-5.8Q389.41-7.81 389.38-10.22 389.36-12.63 389.36-15.13 389.36-17.64 389.39-19.96 389.42-22.29 389.47-24.11L389.47-24.11Q389.57-26.96 390.8-28.09 392.03-29.23 394.61-29.23L394.61-29.23Q397.01-29.23 398.21-28.16 399.42-27.1 399.53-24.25L399.53-24.25Q399.57-23.51 399.59-22.16 399.62-20.8 399.61-18.99 399.59-17.19 399.53-15.11L399.53-15.11 390.02-15.11Q390.02-12.46 390.04-10.39 390.06-8.31 390.09-5.85L390.09-5.85Q390.13-3.4 391.14-2.36 392.14-1.33 394.63-1.33L394.63-1.33Q396.86-1.33 397.81-2.29 398.76-3.26 398.87-5.81L398.87-5.81Q398.91-6.66 398.89-7.82 398.88-8.97 398.82-10.3L398.82-10.3 399.48-10.3Q399.54-9.04 399.56-7.86 399.57-6.69 399.53-5.79L399.53-5.79Q399.41-2.99 398.32-1.88 397.23-0.78 394.63-0.78ZM390.02-15.66L390.02-15.66 398.88-15.66Q398.93-17.48 398.94-19.16 398.94-20.85 398.92-22.18 398.91-23.51 398.87-24.23L398.87-24.23Q398.77-26.74 397.75-27.71 396.73-28.68 394.61-28.68L394.61-28.68Q392.34-28.68 391.27-27.67 390.21-26.66 390.13-24.09L390.13-24.09Q390.08-22.61 390.06-20.29 390.03-17.96 390.02-15.66ZM398.22-16.23L390.68-16.23Q390.69-17.34 390.7-18.63 390.71-19.93 390.73-21.31 390.76-22.69 390.79-24.05L390.79-24.05Q390.87-26.33 391.75-27.22 392.63-28.11 394.61-28.11L394.61-28.11Q396.48-28.11 397.3-27.24 398.12-26.38 398.21-24.19L398.21-24.19Q398.23-23.58 398.26-22.41 398.28-21.24 398.27-19.66 398.27-18.07 398.22-16.23L398.22-16.23ZM391.36-16.78L391.36-16.78 397.57-16.78Q397.61-18.41 397.61-19.89 397.62-21.36 397.59-22.48 397.57-23.6 397.54-24.16L397.54-24.16Q397.46-26.1 396.79-26.83 396.12-27.56 394.61-27.56L394.61-27.56Q392.93-27.56 392.22-26.79 391.52-26.01 391.46-24.03L391.46-24.03Q391.43-22.94 391.41-21.79 391.38-20.64 391.37-19.39 391.36-18.15 391.36-16.78ZM407.67 0L406.99 0 406.99-30 407.65-30 407.65-28.4 407.5-24.98 407.68-24.98Q408.31-26.85 409.69-27.86 411.06-28.88 413.14-28.88L413.14-28.88Q413.65-28.88 414.18-28.86 414.7-28.85 415.03-28.84L415.03-28.84 415.03-28.24Q414.68-28.26 414.12-28.27 413.56-28.28 413.03-28.28L413.03-28.28Q411.2-28.28 410.01-27.51 408.81-26.75 408.24-25.59 407.67-24.44 407.67-23.24L407.67-23.24 407.67 0ZM406.33 0L405.67 0 405.67-30 406.33-30 406.33 0ZM409.03 0L408.33 0 408.33-23.3Q408.33-25.09 409.45-26.36 410.58-27.64 412.78-27.64L412.78-27.64Q413.35-27.64 413.93-27.64 414.5-27.64 415.03-27.64L415.03-27.64 415.03-27.04Q414.5-27.04 413.92-27.04 413.34-27.04 412.78-27.04L412.78-27.04Q410.83-27.04 409.93-25.98 409.03-24.91 409.03-23.34L409.03-23.34 409.03 0ZM408.13-26.53L407.93-26.53 408.3-29.41 408.3-30 408.98-30 408.98-29.78 408.5-27.71 408.63-27.71Q409.3-28.86 410.63-29.46 411.95-30.06 413.39-30.06L413.39-30.06Q413.74-30.06 414.14-30.06 414.54-30.05 415.03-30.01L415.03-30.01 415.03-29.43Q414.6-29.45 414.21-29.46 413.81-29.48 413.43-29.48L413.43-29.48Q411.63-29.48 410.26-28.78 408.9-28.09 408.13-26.53L408.13-26.53ZM422.08-39.41L418.76-39.41 418.76-40 422.08-40 422.08-39.41ZM422.08-37.04L418.76-37.04 418.76-37.64 422.08-37.64 422.08-37.04ZM422.08-38.23L418.76-38.23 418.76-38.81 422.08-38.81 422.08-38.23ZM422.08 0L421.41 0 421.41-30 422.08-30 422.08 0ZM419.43 0L418.76 0 418.76-30 419.43-30 419.43 0ZM420.75 0L420.09 0 420.09-30 420.75-30 420.75 0ZM440.77 0L440.11 0 440.11-23.78Q440.11-24.76 439.97-25.81 439.82-26.86 439.34-27.76 438.85-28.65 437.84-29.21 436.84-29.76 435.12-29.76L435.12-29.76Q433.35-29.76 432.07-28.93 430.79-28.09 430.01-26.53L430.01-26.53 429.81-26.53 430.11-30 430.79-30 430.79-29.7 430.39-27.71 430.51-27.71Q431.26-28.96 432.47-29.66 433.69-30.35 435.3-30.35L435.3-30.35Q436.9-30.35 437.92-29.91 438.95-29.46 439.53-28.73 440.11-27.99 440.38-27.13 440.65-26.26 440.71-25.41 440.77-24.56 440.77-23.89L440.77-23.89 440.77 0ZM428.21 0L427.55 0 427.55-30 428.21-30 428.21 0ZM430.9 0L430.21 0 430.21-23.3Q430.21-24.48 430.69-25.53 431.16-26.59 432.14-27.25 433.12-27.91 434.62-27.91L434.62-27.91Q435.81-27.91 436.52-27.53 437.22-27.15 437.57-26.52 437.91-25.89 438.02-25.11 438.14-24.34 438.14-23.56L438.14-23.56 438.14 0 437.47 0 437.47-23.53Q437.47-24.39 437.32-25.27 437.16-26.15 436.54-26.74 435.91-27.33 434.54-27.33L434.54-27.33Q433.3-27.33 432.49-26.76 431.69-26.2 431.29-25.29 430.9-24.39 430.9-23.34L430.9-23.34 430.9 0ZM429.55 0L428.87 0 428.87-30 429.54-30 429.39-24.98 429.56-24.98Q430.17-26.86 431.54-28.02 432.91-29.18 434.96-29.15L434.96-29.15Q437.49-29.14 438.47-27.75 439.45-26.36 439.45-23.74L439.45-23.74 439.45 0 438.79 0 438.79-23.66Q438.79-25.98 437.95-27.27 437.11-28.56 434.76-28.56L434.76-28.56Q432.99-28.56 431.83-27.74 430.67-26.93 430.11-25.7 429.55-24.48 429.55-23.24L429.55-23.24 429.55 0ZM452.22 8.1L452.22 8.1Q448.96 8.1 447.06 6.98 445.17 5.85 445.07 3.16L445.07 3.16Q445.05 2.79 445.06 2.49 445.07 2.2 445.1 1.93L445.1 1.93Q445.18 0.59 446.05-0.35 446.92-1.29 448.11-1.55L448.11-1.55 448.11-1.69Q446.92-2.1 446.48-2.81 446.03-3.51 445.97-4.35L445.97-4.35Q445.96-4.58 445.96-4.75 445.96-4.93 445.97-5.14L445.97-5.14Q446.06-6.2 446.67-6.98 447.28-7.75 448.42-8.15L448.42-8.15 448.42-8.33Q447.25-8.79 446.48-9.96 445.72-11.13 445.65-13.11L445.65-13.11Q445.6-14.48 445.57-15.75 445.55-17.03 445.55-18.32 445.55-19.63 445.57-21.06 445.6-22.5 445.65-24.18L445.65-24.18Q445.77-27.51 447.32-28.93 448.87-30.34 452.23-30.34L452.23-30.34Q454.57-30.34 455.67-29.64 456.77-28.94 457.23-27.58L457.23-27.58 457.37-27.58Q457.8-28.44 458.56-28.98 459.33-29.53 460.2-29.77 461.07-30.01 461.77-30L461.77-30 461.77-29.44Q459.85-29.43 458.74-28.6 457.63-27.78 457.3-26.59L457.3-26.59 457.16-26.59Q456.82-28.2 455.75-28.99 454.68-29.79 452.23-29.79L452.23-29.79Q449.1-29.79 447.76-28.46 446.42-27.13 446.31-24.19L446.31-24.19Q446.26-22.29 446.23-20.61 446.2-18.93 446.21-17.14 446.22-15.35 446.31-13.11L446.31-13.11Q446.4-10.95 447.23-9.8 448.06-8.65 449.45-8.33L449.45-8.33 449.45-8.15Q448.02-7.8 447.33-7.03 446.63-6.25 446.55-5.16L446.55-5.16Q446.53-4.98 446.53-4.78 446.53-4.58 446.55-4.34L446.55-4.34Q446.61-3.45 447.12-2.75 447.63-2.05 449.06-1.7L449.06-1.7 449.06-1.56Q447.62-1.26 446.7-0.41 445.78 0.45 445.66 1.94L445.66 1.94Q445.62 2.26 445.6 2.51 445.58 2.75 445.61 3.16L445.61 3.16Q445.73 5.71 447.46 6.66 449.18 7.61 452.22 7.61L452.22 7.61Q455.31 7.61 457.03 6.66 458.76 5.71 458.96 3.16L458.96 3.16Q459 2.8 458.99 2.53 458.98 2.25 458.95 1.9L458.95 1.9Q458.78-0.59 457.09-1.41 455.4-2.24 452.32-2.35L452.32-2.35Q450.8-2.41 449.95-2.66 449.11-2.91 448.73-3.34 448.36-3.76 448.25-4.35L448.25-4.35Q448.2-4.56 448.19-4.77 448.18-4.98 448.21-5.15L448.21-5.15Q448.38-6.36 449.18-6.94 449.97-7.51 452.23-7.49L452.23-7.49Q455-7.46 456.46-8.68 457.93-9.89 458.08-13.04L458.08-13.04Q458.16-15.03 458.18-16.69 458.2-18.35 458.18-20.09 458.17-21.84 458.12-24.08L458.12-24.08Q458.08-25.73 458.96-26.82 459.83-27.91 461.77-27.86L461.77-27.86 461.77-27.31Q460.18-27.33 459.45-26.45 458.71-25.58 458.73-23.66L458.73-23.66Q458.77-21.69 458.78-19.99 458.8-18.29 458.78-16.62 458.77-14.95 458.68-13.09L458.68-13.09Q458.53-9.76 457.03-8.36 455.53-6.95 452.23-6.93L452.23-6.93Q450.76-6.93 450.06-6.71 449.36-6.49 449.12-6.07 448.88-5.65 448.81-5.04L448.81-5.04Q448.8-4.95 448.8-4.81 448.81-4.66 448.83-4.51L448.83-4.51Q448.92-3.98 449.23-3.64 449.55-3.3 450.27-3.13 451-2.95 452.32-2.89L452.32-2.89Q455.75-2.76 457.56-1.81 459.37-0.85 459.56 1.93L459.56 1.93Q459.58 2.35 459.58 2.56 459.58 2.78 459.56 3.16L459.56 3.16Q459.38 5.83 457.51 6.96 455.65 8.1 452.22 8.1ZM452.22 6.61L452.22 6.61Q454.03 6.61 455.25 6.3 456.47 5.99 457.11 5.24 457.75 4.49 457.82 3.18L457.82 3.18Q457.85 2.83 457.84 2.56 457.83 2.3 457.8 1.93L457.8 1.93Q457.71 0.58 457.03-0.1 456.36-0.78 455.16-1.04 453.97-1.31 452.32-1.41L452.32-1.41Q449.71-1.58 448.33-0.79 446.95-0.01 446.72 1.91L446.72 1.91Q446.67 2.25 446.65 2.53 446.63 2.81 446.65 3.19L446.65 3.19Q446.77 5.28 448.24 5.94 449.71 6.61 452.22 6.61ZM452.22 6.14L452.22 6.14Q449.92 6.14 448.62 5.58 447.32 5.01 447.21 3.19L447.21 3.19Q447.18 2.89 447.19 2.55 447.2 2.21 447.23 1.89L447.23 1.89Q447.4 0.06 448.73-0.5 450.07-1.06 452.36-0.98L452.36-0.98Q453.81-0.91 454.87-0.71 455.93-0.5 456.55 0.09 457.17 0.69 457.25 1.93L457.25 1.93Q457.3 2.33 457.29 2.59 457.28 2.86 457.26 3.19L457.26 3.19Q457.13 5.04 455.81 5.59 454.5 6.14 452.22 6.14ZM452.22 5.63L452.22 5.63Q453.48 5.63 454.44 5.47 455.4 5.31 455.97 4.79 456.55 4.26 456.63 3.19L456.63 3.19Q456.68 2.85 456.67 2.56 456.66 2.27 456.61 1.93L456.61 1.93Q456.55 0.88 455.99 0.39 455.43-0.1 454.49-0.26 453.55-0.41 452.32-0.45L452.32-0.45Q450.27-0.55 449.09-0.08 447.91 0.39 447.83 1.93L447.83 1.93Q447.77 2.2 447.76 2.55 447.76 2.9 447.81 3.19L447.81 3.19Q447.92 4.79 449.1 5.21 450.27 5.63 452.22 5.63ZM452.22 7.13L452.22 7.13Q449.37 7.13 447.79 6.33 446.21 5.53 446.1 3.18L446.1 3.18Q446.07 2.8 446.1 2.52 446.12 2.24 446.15 1.93L446.15 1.93Q446.28 0.38 447.23-0.48 448.17-1.34 450.02-1.58L450.02-1.58 450.02-1.71Q448.42-1.99 447.8-2.67 447.17-3.35 447.05-4.34L447.05-4.34Q447.03-4.6 447.03-4.75 447.02-4.9 447.03-5.16L447.03-5.16Q447.06-6.3 448.03-7.13 449-7.96 450.47-8.2L450.47-8.2 450.47-8.34Q448.75-8.66 447.9-9.78 447.06-10.89 446.97-13.15L446.97-13.15Q446.91-14.78 446.88-16.48 446.86-18.19 446.88-20.08 446.9-21.96 446.97-24.14L446.97-24.14Q447.07-27.03 448.36-28.13 449.65-29.23 452.23-29.23L452.23-29.23Q454.6-29.23 455.66-28.35 456.73-27.48 457.06-25.46L457.06-25.46 457.2-25.46Q457.47-26.61 458.05-27.38 458.62-28.15 459.55-28.55 460.47-28.95 461.77-28.95L461.77-28.95 461.77-28.4Q459.67-28.41 458.53-27.22 457.38-26.03 457.46-23.86L457.46-23.86Q457.53-21.85 457.55-20.03 457.57-18.2 457.55-16.5 457.53-14.8 457.46-13.18L457.46-13.18Q457.32-10.18 455.99-9.08 454.66-7.99 452.23-8.01L452.23-8.01Q450.83-8.03 449.85-7.68 448.87-7.33 448.33-6.71 447.78-6.09 447.68-5.26L447.68-5.26Q447.66-5.01 447.65-4.8 447.65-4.59 447.68-4.36L447.68-4.36Q447.85-3.25 448.83-2.63 449.81-2.01 452.32-1.93L452.32-1.93Q454.2-1.86 455.53-1.51 456.86-1.16 457.61-0.35 458.36 0.46 458.43 1.93L458.43 1.93Q458.46 2.27 458.46 2.52 458.47 2.76 458.45 3.18L458.45 3.18Q458.27 5.46 456.66 6.29 455.05 7.13 452.22 7.13ZM452.23-8.64L452.23-8.64Q454.51-8.64 455.61-9.64 456.71-10.64 456.82-13.2L456.82-13.2Q456.88-14.69 456.9-16.43 456.92-18.16 456.91-20.11 456.91-22.05 456.83-24.11L456.83-24.11Q456.75-26.68 455.61-27.68 454.47-28.68 452.23-28.68L452.23-28.68Q449.87-28.68 448.8-27.66 447.73-26.64 447.63-24.1L447.63-24.1Q447.52-21.13 447.53-18.41 447.53-15.69 447.63-13.19L447.63-13.19Q447.73-10.71 448.81-9.68 449.9-8.64 452.23-8.64ZM452.23-9.19L452.23-9.19Q450.33-9.19 449.36-10.04 448.38-10.89 448.3-13.21L448.3-13.21Q448.2-15.7 448.2-18.57 448.2-21.44 448.3-24.08L448.3-24.08Q448.37-26.4 449.32-27.26 450.27-28.11 452.23-28.11L452.23-28.11Q454.27-28.11 455.18-27.24 456.08-26.36 456.17-24.1L456.17-24.1Q456.25-22.15 456.26-20.25 456.27-18.35 456.25-16.59 456.22-14.83 456.16-13.24L456.16-13.24Q456.06-10.94 455.13-10.06 454.2-9.19 452.23-9.19ZM452.23-9.75L452.23-9.75Q453.9-9.75 454.65-10.52 455.4-11.29 455.5-13.28L455.5-13.28Q455.56-14.88 455.58-16.69 455.61-18.5 455.6-20.38 455.58-22.26 455.51-24.06L455.51-24.06Q455.43-26.08 454.68-26.82 453.92-27.56 452.23-27.56L452.23-27.56Q450.57-27.56 449.8-26.81 449.03-26.06 448.96-24.04L448.96-24.04Q448.86-21.41 448.86-18.61 448.86-15.8 448.96-13.25L448.96-13.25Q449.03-11.21 449.83-10.48 450.63-9.75 452.23-9.75ZM476.92 0L476.24 0 476.24-30 476.9-30 476.9-28.4 476.75-24.98 476.93-24.98Q477.57-26.85 478.94-27.86 480.32-28.88 482.39-28.88L482.39-28.88Q482.9-28.88 483.43-28.86 483.95-28.85 484.28-28.84L484.28-28.84 484.28-28.24Q483.93-28.26 483.37-28.27 482.82-28.28 482.28-28.28L482.28-28.28Q480.45-28.28 479.26-27.51 478.07-26.75 477.49-25.59 476.92-24.44 476.92-23.24L476.92-23.24 476.92 0ZM475.58 0L474.92 0 474.92-30 475.58-30 475.58 0ZM478.28 0L477.58 0 477.58-23.3Q477.58-25.09 478.7-26.36 479.83-27.64 482.03-27.64L482.03-27.64Q482.6-27.64 483.18-27.64 483.75-27.64 484.28-27.64L484.28-27.64 484.28-27.04Q483.75-27.04 483.17-27.04 482.59-27.04 482.03-27.04L482.03-27.04Q480.08-27.04 479.18-25.98 478.28-24.91 478.28-23.34L478.28-23.34 478.28 0ZM477.38-26.53L477.18-26.53 477.55-29.41 477.55-30 478.23-30 478.23-29.78 477.75-27.71 477.88-27.71Q478.55-28.86 479.88-29.46 481.2-30.06 482.64-30.06L482.64-30.06Q482.99-30.06 483.39-30.06 483.79-30.05 484.28-30.01L484.28-30.01 484.28-29.43Q483.85-29.45 483.46-29.46 483.07-29.48 482.68-29.48L482.68-29.48Q480.88-29.48 479.52-28.78 478.15-28.09 477.38-26.53L477.38-26.53ZM493.85 0.34L493.85 0.34Q490.61 0.34 489.04-1.01 487.48-2.35 487.36-5.73L487.36-5.73Q487.31-7.56 487.28-9.91 487.25-12.25 487.25-14.78 487.25-17.3 487.28-19.74 487.31-22.18 487.38-24.2L487.38-24.2Q487.49-27.46 488.98-28.9 490.48-30.34 493.83-30.34L493.83-30.34Q496.93-30.34 498.43-28.99 499.94-27.64 500.08-24.29L500.08-24.29Q500.11-23.63 500.13-22.57 500.15-21.51 500.15-20.16 500.15-18.81 500.13-17.24 500.1-15.68 500.03-14L500.03-14 490.56-14Q490.56-12.54 490.58-11.16 490.59-9.78 490.61-8.47 490.64-7.18 490.68-5.94L490.68-5.94Q490.74-4 491.43-3.22 492.11-2.44 493.85-2.44L493.85-2.44Q495.45-2.44 496.06-3.16 496.68-3.89 496.76-5.89L496.76-5.89Q496.8-6.69 496.79-7.84 496.78-8.99 496.71-10.3L496.71-10.3 497.38-10.3Q497.44-8.93 497.45-7.81 497.46-6.7 497.43-5.85L497.43-5.85Q497.34-3.59 496.55-2.74 495.76-1.89 493.85-1.89L493.85-1.89Q491.79-1.89 490.93-2.78 490.06-3.66 490-5.89L490-5.89Q489.98-6.99 489.95-8.49 489.93-10 489.91-11.59 489.9-13.19 489.9-14.55L489.9-14.55 499.4-14.55Q499.45-16.1 499.47-17.57 499.49-19.04 499.49-20.31 499.49-21.59 499.47-22.6 499.45-23.61 499.41-24.28L499.41-24.28Q499.28-27.41 497.89-28.6 496.5-29.79 493.83-29.79L493.83-29.79Q490.75-29.79 489.44-28.44 488.14-27.1 488.04-24.16L488.04-24.16Q487.98-22.11 487.94-19.71 487.91-17.3 487.91-14.81 487.91-12.33 487.94-10 487.98-7.68 488.03-5.78L488.03-5.78Q488.13-2.69 489.51-1.45 490.9-0.21 493.85-0.21L493.85-0.21Q496.76-0.21 498.02-1.46 499.28-2.71 499.41-5.76L499.41-5.76Q499.44-6.31 499.44-7.05 499.45-7.79 499.43-8.62 499.41-9.45 499.36-10.3L499.36-10.3 500.03-10.3Q500.09-9.15 500.11-7.93 500.13-6.7 500.08-5.73L500.08-5.73Q499.94-2.44 498.52-1.05 497.1 0.34 493.85 0.34ZM493.85-0.78L493.85-0.78Q491.18-0.78 489.98-1.9 488.78-3.03 488.69-5.8L488.69-5.8Q488.63-7.81 488.6-10.22 488.58-12.63 488.58-15.13 488.58-17.64 488.61-19.96 488.64-22.29 488.69-24.11L488.69-24.11Q488.79-26.96 490.02-28.09 491.25-29.23 493.83-29.23L493.83-29.23Q496.23-29.23 497.43-28.16 498.64-27.1 498.75-24.25L498.75-24.25Q498.79-23.51 498.81-22.16 498.84-20.8 498.83-18.99 498.81-17.19 498.75-15.11L498.75-15.11 489.24-15.11Q489.24-12.46 489.26-10.39 489.28-8.31 489.31-5.85L489.31-5.85Q489.35-3.4 490.36-2.36 491.36-1.33 493.85-1.33L493.85-1.33Q496.08-1.33 497.03-2.29 497.98-3.26 498.09-5.81L498.09-5.81Q498.13-6.66 498.11-7.82 498.1-8.97 498.04-10.3L498.04-10.3 498.7-10.3Q498.76-9.04 498.78-7.86 498.79-6.69 498.75-5.79L498.75-5.79Q498.63-2.99 497.54-1.88 496.45-0.78 493.85-0.78ZM489.24-15.66L489.24-15.66 498.1-15.66Q498.15-17.48 498.16-19.16 498.16-20.85 498.14-22.18 498.13-23.51 498.09-24.23L498.09-24.23Q497.99-26.74 496.97-27.71 495.95-28.68 493.83-28.68L493.83-28.68Q491.56-28.68 490.49-27.67 489.43-26.66 489.35-24.09L489.35-24.09Q489.3-22.61 489.28-20.29 489.25-17.96 489.24-15.66ZM497.44-16.23L489.9-16.23Q489.91-17.34 489.92-18.63 489.93-19.93 489.95-21.31 489.98-22.69 490.01-24.05L490.01-24.05Q490.09-26.33 490.97-27.22 491.85-28.11 493.83-28.11L493.83-28.11Q495.7-28.11 496.52-27.24 497.34-26.38 497.43-24.19L497.43-24.19Q497.45-23.58 497.48-22.41 497.5-21.24 497.49-19.66 497.49-18.07 497.44-16.23L497.44-16.23ZM490.58-16.78L490.58-16.78 496.79-16.78Q496.83-18.41 496.83-19.89 496.84-21.36 496.81-22.48 496.79-23.6 496.76-24.16L496.76-24.16Q496.68-26.1 496.01-26.83 495.34-27.56 493.83-27.56L493.83-27.56Q492.15-27.56 491.44-26.79 490.74-26.01 490.68-24.03L490.68-24.03Q490.65-22.94 490.63-21.79 490.6-20.64 490.59-19.39 490.58-18.15 490.58-16.78ZM510.94 0.34L510.94 0.34Q507.76 0.34 506.19-1 504.62-2.34 504.51-5.73L504.51-5.73Q504.46-7.56 504.43-9.91 504.4-12.25 504.4-14.78 504.4-17.3 504.43-19.74 504.46-22.18 504.52-24.2L504.52-24.2Q504.64-27.46 506.1-28.9 507.57-30.34 510.9-30.34L510.9-30.34Q514.11-30.34 515.63-28.99 517.15-27.64 517.22-24.31L517.22-24.31Q517.25-23.4 517.24-22.17 517.24-20.94 517.17-19.78L517.17-19.78 516.51-19.78Q516.57-20.84 516.58-22.06 516.59-23.28 516.56-24.29L516.56-24.29Q516.5-27.25 515.19-28.52 513.87-29.79 510.9-29.79L510.9-29.79Q507.87-29.79 506.58-28.46 505.29-27.13 505.19-24.16L505.19-24.16Q505.12-22.1 505.09-19.7 505.06-17.3 505.06-14.81 505.06-12.33 505.09-10 505.12-7.68 505.17-5.78L505.17-5.78Q505.26-2.73 506.65-1.47 508.05-0.21 510.94-0.21L510.94-0.21Q513.87-0.21 515.16-1.49 516.45-2.76 516.56-5.75L516.56-5.75Q516.6-6.73 516.59-7.79 516.59-8.85 516.51-10.3L516.51-10.3 517.17-10.3Q517.24-9.14 517.25-8.06 517.27-6.99 517.22-5.73L517.22-5.73Q517.1-2.49 515.66-1.07 514.22 0.34 510.94 0.34ZM510.94-0.78L510.94-0.78Q508.32-0.78 507.12-1.94 505.91-3.1 505.84-5.8L505.84-5.8Q505.79-7.81 505.75-10.23 505.72-12.64 505.72-15.14 505.72-17.65 505.75-19.98 505.79-22.3 505.84-24.13L505.84-24.13Q505.94-27.04 507.17-28.13 508.41-29.23 510.9-29.23L510.9-29.23Q513.51-29.23 514.68-28.11 515.85-26.99 515.9-24.26L515.9-24.26Q515.91-23.38 515.91-22.21 515.91-21.05 515.85-19.78L515.85-19.78 515.19-19.78Q515.25-21.1 515.25-22.28 515.25-23.46 515.24-24.25L515.24-24.25Q515.2-26.74 514.17-27.71 513.15-28.68 510.9-28.68L510.9-28.68Q508.71-28.68 507.64-27.7 506.57-26.73 506.5-24.09L506.5-24.09Q506.45-22.58 506.42-20.36 506.39-18.14 506.37-15.61 506.35-13.09 506.37-10.57 506.4-8.05 506.46-5.94L506.46-5.94Q506.55-3.35 507.6-2.34 508.65-1.33 510.94-1.33L510.94-1.33Q513.17-1.33 514.15-2.31 515.14-3.3 515.24-5.78L515.24-5.78Q515.27-6.7 515.27-7.76 515.26-8.83 515.19-10.3L515.19-10.3 515.85-10.3Q515.92-8.72 515.93-7.72 515.94-6.71 515.9-5.78L515.9-5.78Q515.79-3.05 514.67-1.91 513.56-0.78 510.94-0.78ZM510.94-1.89L510.94-1.89Q508.97-1.89 508.09-2.77 507.21-3.65 507.15-5.95L507.15-5.95Q507.1-7.84 507.07-10.14 507.05-12.44 507.05-14.89 507.05-17.34 507.08-19.69 507.11-22.05 507.16-24.05L507.16-24.05Q507.24-26.38 508.11-27.24 508.99-28.11 510.9-28.11L510.9-28.11Q512.87-28.11 513.71-27.24 514.55-26.38 514.57-24.2L514.57-24.2Q514.59-23.31 514.59-22.22 514.59-21.13 514.52-19.78L514.52-19.78 513.86-19.78Q513.92-21.16 513.92-22.26 513.92-23.35 513.91-24.19L513.91-24.19Q513.89-26.04 513.24-26.8 512.6-27.56 510.9-27.56L510.9-27.56Q509.26-27.56 508.57-26.79 507.89-26.03 507.82-24.03L507.82-24.03Q507.77-22.25 507.74-20.04 507.71-17.84 507.71-15.43 507.71-13.01 507.74-10.59 507.76-8.16 507.82-5.94L507.82-5.94Q507.89-4 508.56-3.22 509.24-2.44 510.94-2.44L510.94-2.44Q512.6-2.44 513.23-3.21 513.86-3.99 513.91-5.86L513.91-5.86Q513.94-6.84 513.94-7.82 513.94-8.8 513.86-10.3L513.86-10.3 514.52-10.3Q514.6-8.84 514.6-7.77 514.61-6.7 514.57-5.85L514.57-5.85Q514.5-3.65 513.69-2.77 512.89-1.89 510.94-1.89ZM525.22-39.41L521.91-39.41 521.91-40 525.22-40 525.22-39.41ZM525.22-37.04L521.91-37.04 521.91-37.64 525.22-37.64 525.22-37.04ZM525.22-38.23L521.91-38.23 521.91-38.81 525.22-38.81 525.22-38.23ZM525.22 0L524.56 0 524.56-30 525.22-30 525.22 0ZM522.57 0L521.91 0 521.91-30 522.57-30 522.57 0ZM523.9 0L523.23 0 523.23-30 523.9-30 523.9 0ZM533.99 10L533.29 10 533.29 2.76 533.11-3.34 533.29-3.34Q533.92-1.81 535.25-1.02 536.58-0.23 538.21-0.23L538.21-0.23Q540.94-0.23 542.05-1.83 543.16-3.44 543.31-6.23L543.31-6.23Q543.46-9.35 543.5-12.25 543.54-15.15 543.5-17.98 543.46-20.8 543.32-23.73L543.32-23.73Q543.17-26.69 542.03-28.24 540.89-29.8 538.29-29.8L538.29-29.8Q536.43-29.8 535.06-28.83 533.68-27.86 533.12-26.4L533.12-26.4 532.96-26.4 533.19-30 533.82-30 533.82-29.68 533.58-28.01 533.72-28.01Q534.41-29.11 535.66-29.73 536.92-30.35 538.42-30.35L538.42-30.35Q541.21-30.35 542.5-28.71 543.79-27.08 543.98-23.73L543.98-23.73Q544.12-21 544.16-18.15 544.19-15.3 544.15-12.33 544.11-9.36 543.97-6.25L543.97-6.25Q543.79-2.94 542.52-1.31 541.24 0.33 538.43 0.33L538.43 0.33Q536.98 0.33 535.74-0.28 534.5-0.89 533.83-2.02L533.83-2.02 533.67-2.02 533.99 4.85 533.99 10ZM531.36 10L530.69 10 530.69-30 531.36-30 531.36 10ZM532.68 10L532.02 10 532.02-30 532.68-30 532.53-24.39 532.68-24.39Q532.98-26.55 534.42-27.89 535.87-29.24 538.13-29.24L538.13-29.24Q540.37-29.24 541.44-27.89 542.52-26.54 542.67-23.71L542.67-23.71Q542.81-20.86 542.84-18.04 542.88-15.23 542.84-12.31 542.79-9.39 542.66-6.24L542.66-6.24Q542.53-3.6 541.47-2.21 540.42-0.83 537.97-0.79L537.97-0.79Q535.83-0.76 534.49-2.07 533.16-3.38 532.75-5.38L532.75-5.38 532.59-5.38 532.68 0.34 532.68 10ZM537.87-1.35L537.87-1.35Q540.09-1.35 540.99-2.64 541.89-3.93 541.99-6.18L541.99-6.18Q542.14-10.41 542.17-14.71 542.19-19 542.02-23.66L542.02-23.66Q541.92-26.26 540.93-27.48 539.94-28.69 537.84-28.69L537.84-28.69Q536.19-28.69 535.11-27.94 534.02-27.2 533.46-26.01 532.91-24.83 532.84-23.51L532.84-23.51Q532.74-20.36 532.71-17.4 532.67-14.44 532.71-11.69 532.74-8.94 532.84-6.43L532.84-6.43Q532.91-5.15 533.47-3.99 534.03-2.83 535.12-2.09 536.22-1.35 537.87-1.35ZM537.78-1.89L537.78-1.89Q535.59-1.89 534.57-3.24 533.56-4.59 533.48-6.4L533.48-6.4Q533.38-9.08 533.34-11.89 533.31-14.7 533.34-17.61 533.38-20.53 533.48-23.5L533.48-23.5Q533.56-25.43 534.57-26.77 535.59-28.11 537.69-28.11L537.69-28.11Q539.59-28.11 540.44-27 541.28-25.89 541.36-23.7L541.36-23.7Q541.47-20.71 541.49-17.88 541.5-15.04 541.47-12.18 541.43-9.31 541.34-6.25L541.34-6.25Q541.27-4.1 540.46-2.99 539.64-1.89 537.78-1.89ZM537.77-2.44L537.77-2.44Q539.23-2.44 539.92-3.38 540.61-4.31 540.68-6.28L540.68-6.28Q540.84-10.83 540.85-14.95 540.86-19.07 540.69-23.7L540.69-23.7Q540.63-25.59 539.94-26.58 539.24-27.56 537.68-27.56L537.68-27.56Q535.89-27.56 535.06-26.36 534.22-25.15 534.14-23.5L534.14-23.5Q534.04-20.76 534-17.89 533.97-15.03 534-12.13 534.04-9.24 534.14-6.4L534.14-6.4Q534.21-4.78 535.08-3.61 535.96-2.44 537.77-2.44ZM555.28 0.34L555.28 0.34Q552.04 0.34 550.47-1.01 548.9-2.35 548.79-5.73L548.79-5.73Q548.74-7.56 548.71-9.91 548.68-12.25 548.68-14.78 548.68-17.3 548.71-19.74 548.74-22.18 548.8-24.2L548.8-24.2Q548.91-27.46 550.41-28.9 551.9-30.34 555.25-30.34L555.25-30.34Q558.35-30.34 559.86-28.99 561.37-27.64 561.5-24.29L561.5-24.29Q561.54-23.63 561.56-22.57 561.58-21.51 561.58-20.16 561.58-18.81 561.55-17.24 561.53-15.68 561.45-14L561.45-14 551.99-14Q551.99-12.54 552-11.16 552.01-9.78 552.04-8.47 552.07-7.18 552.1-5.94L552.1-5.94Q552.16-4 552.85-3.22 553.54-2.44 555.28-2.44L555.28-2.44Q556.88-2.44 557.49-3.16 558.1-3.89 558.19-5.89L558.19-5.89Q558.23-6.69 558.22-7.84 558.2-8.99 558.14-10.3L558.14-10.3 558.8-10.3Q558.87-8.93 558.88-7.81 558.89-6.7 558.85-5.85L558.85-5.85Q558.76-3.59 557.98-2.74 557.19-1.89 555.28-1.89L555.28-1.89Q553.22-1.89 552.35-2.78 551.49-3.66 551.43-5.89L551.43-5.89Q551.4-6.99 551.38-8.49 551.35-10 551.34-11.59 551.33-13.19 551.33-14.55L551.33-14.55 560.83-14.55Q560.88-16.1 560.9-17.57 560.91-19.04 560.91-20.31 560.91-21.59 560.9-22.6 560.88-23.61 560.84-24.28L560.84-24.28Q560.7-27.41 559.32-28.6 557.93-29.79 555.25-29.79L555.25-29.79Q552.18-29.79 550.87-28.44 549.57-27.1 549.47-24.16L549.47-24.16Q549.4-22.11 549.37-19.71 549.34-17.3 549.34-14.81 549.34-12.33 549.37-10 549.4-7.68 549.45-5.78L549.45-5.78Q549.55-2.69 550.94-1.45 552.33-0.21 555.28-0.21L555.28-0.21Q558.19-0.21 559.45-1.46 560.7-2.71 560.84-5.76L560.84-5.76Q560.87-6.31 560.87-7.05 560.88-7.79 560.86-8.62 560.84-9.45 560.79-10.3L560.79-10.3 561.45-10.3Q561.51-9.15 561.53-7.93 561.55-6.7 561.5-5.73L561.5-5.73Q561.37-2.44 559.95-1.05 558.53 0.34 555.28 0.34ZM555.28-0.78L555.28-0.78Q552.6-0.78 551.4-1.9 550.2-3.03 550.12-5.8L550.12-5.8Q550.05-7.81 550.03-10.22 550-12.63 550-15.13 550-17.64 550.03-19.96 550.07-22.29 550.12-24.11L550.12-24.11Q550.22-26.96 551.45-28.09 552.68-29.23 555.25-29.23L555.25-29.23Q557.65-29.23 558.86-28.16 560.07-27.1 560.18-24.25L560.18-24.25Q560.22-23.51 560.24-22.16 560.26-20.8 560.25-18.99 560.24-17.19 560.18-15.11L560.18-15.11 550.66-15.11Q550.66-12.46 550.68-10.39 550.7-8.31 550.74-5.85L550.74-5.85Q550.78-3.4 551.78-2.36 552.79-1.33 555.28-1.33L555.28-1.33Q557.5-1.33 558.45-2.29 559.4-3.26 559.51-5.81L559.51-5.81Q559.55-6.66 559.54-7.82 559.53-8.97 559.47-10.3L559.47-10.3 560.13-10.3Q560.19-9.04 560.2-7.86 560.22-6.69 560.18-5.79L560.18-5.79Q560.05-2.99 558.97-1.88 557.88-0.78 555.28-0.78ZM550.66-15.66L550.66-15.66 559.53-15.66Q559.58-17.48 559.58-19.16 559.59-20.85 559.57-22.18 559.55-23.51 559.51-24.23L559.51-24.23Q559.41-26.74 558.4-27.71 557.38-28.68 555.25-28.68L555.25-28.68Q552.99-28.68 551.92-27.67 550.85-26.66 550.78-24.09L550.78-24.09Q550.73-22.61 550.7-20.29 550.68-17.96 550.66-15.66ZM558.87-16.23L551.33-16.23Q551.34-17.34 551.35-18.63 551.35-19.93 551.38-21.31 551.4-22.69 551.44-24.05L551.44-24.05Q551.51-26.33 552.4-27.22 553.28-28.11 555.25-28.11L555.25-28.11Q557.13-28.11 557.95-27.24 558.76-26.38 558.85-24.19L558.85-24.19Q558.88-23.58 558.9-22.41 558.93-21.24 558.92-19.66 558.91-18.07 558.87-16.23L558.87-16.23ZM552-16.78L552-16.78 558.22-16.78Q558.25-18.41 558.26-19.89 558.26-21.36 558.24-22.48 558.22-23.6 558.19-24.16L558.19-24.16Q558.1-26.1 557.43-26.83 556.76-27.56 555.25-27.56L555.25-27.56Q553.58-27.56 552.87-26.79 552.16-26.01 552.1-24.03L552.1-24.03Q552.08-22.94 552.05-21.79 552.03-20.64 552.01-19.39 552-18.15 552-16.78ZM571.54 0.34L571.54 0.34Q568.46 0.34 567.07-1.06 565.67-2.46 565.56-5.73L565.56-5.73Q565.54-6.84 565.53-8.02 565.52-9.2 565.59-10.3L565.59-10.3 566.2-10.3Q566.15-9.25 566.15-8.01 566.15-6.76 566.17-5.76L566.17-5.76Q566.27-2.79 567.52-1.5 568.76-0.21 571.54-0.21L571.54-0.21Q574.55-0.21 575.81-1.52 577.07-2.83 577.16-5.66L577.16-5.66Q577.2-6.31 577.21-6.86 577.21-7.41 577.21-7.97 577.2-8.53 577.2-9.19L577.2-9.19Q577.2-12.04 576.14-13.45 575.07-14.86 572.87-15.66L572.87-15.66 571.06-16.31Q569.95-16.71 569.33-17.19 568.71-17.68 568.44-18.63 568.16-19.58 568.07-21.38L568.07-21.38Q568.05-22.05 568.04-22.71 568.04-23.36 568.07-24.16L568.07-24.16Q568.17-26.28 568.98-27.19 569.79-28.11 571.66-28.11L571.66-28.11Q573.44-28.11 574.27-27.23 575.1-26.34 575.15-24.2L575.15-24.2Q575.17-23.5 575.19-22.33 575.2-21.16 575.14-19.78L575.14-19.78 574.52-19.78Q574.59-21.11 574.57-22.21 574.56-23.3 574.54-24.18L574.54-24.18Q574.5-26.03 573.81-26.79 573.11-27.56 571.66-27.56L571.66-27.56Q570.14-27.56 569.46-26.78 568.79-25.99 568.72-24.16L568.72-24.16Q568.7-23.41 568.69-22.83 568.69-22.24 568.72-21.38L568.72-21.38Q568.8-19.74 569.04-18.89 569.27-18.04 569.81-17.62 570.34-17.2 571.25-16.86L571.25-16.86 573.04-16.2Q574.5-15.68 575.58-14.88 576.66-14.09 577.26-12.74 577.85-11.4 577.85-9.19L577.85-9.19Q577.85-8.51 577.85-7.96 577.85-7.4 577.85-6.85 577.85-6.3 577.81-5.65L577.81-5.65Q577.7-2.59 576.33-1.13 574.96 0.34 571.54 0.34ZM571.54-0.78L571.54-0.78Q569-0.78 567.94-1.98 566.87-3.19 566.8-5.78L566.8-5.78Q566.77-6.85 566.76-7.91 566.75-8.97 566.81-10.3L566.81-10.3 567.44-10.3Q567.36-8.95 567.38-7.79 567.4-6.64 567.41-5.8L567.41-5.8Q567.49-3.41 568.44-2.37 569.4-1.33 571.54-1.33L571.54-1.33Q573.92-1.33 574.86-2.41 575.79-3.5 575.87-5.68L575.87-5.68Q575.92-6.65 575.92-7.42 575.91-8.19 575.91-9.19L575.91-9.19Q575.91-11.66 575.08-12.81 574.25-13.96 572.54-14.56L572.54-14.56 570.67-15.21Q569.27-15.71 568.46-16.35 567.64-16.99 567.26-18.14 566.87-19.3 566.79-21.36L566.79-21.36Q566.75-22.26 566.76-22.84 566.77-23.41 566.79-24.18L566.79-24.18Q566.84-26.81 567.93-28.02 569.02-29.23 571.66-29.23L571.66-29.23Q574.12-29.23 575.21-28.08 576.3-26.93 576.37-24.26L576.37-24.26Q576.4-23.34 576.41-22.25 576.42-21.16 576.36-19.78L576.36-19.78 575.75-19.78Q575.81-21.24 575.8-22.33 575.79-23.43 575.76-24.26L575.76-24.26Q575.7-26.65 574.72-27.66 573.75-28.68 571.66-28.68L571.66-28.68Q569.4-28.68 568.44-27.61 567.47-26.54 567.44-24.18L567.44-24.18Q567.42-23.38 567.41-22.83 567.4-22.28 567.44-21.36L567.44-21.36Q567.52-19.36 567.87-18.31 568.22-17.25 568.95-16.72 569.67-16.19 570.86-15.76L570.86-15.76 572.7-15.1Q574.67-14.41 575.61-13.14 576.55-11.86 576.55-9.19L576.55-9.19Q576.55-8.19 576.56-7.41 576.56-6.64 576.52-5.66L576.52-5.66Q576.42-3.15 575.33-1.96 574.24-0.78 571.54-0.78ZM571.54-1.89L571.54-1.89Q569.79-1.89 568.94-2.78 568.09-3.66 568.02-5.84L568.02-5.84Q568.01-6.79 567.99-7.94 567.97-9.09 568.04-10.3L568.04-10.3 568.65-10.3Q568.6-9.29 568.61-8.12 568.61-6.95 568.64-5.88L568.64-5.88Q568.67-4.04 569.36-3.24 570.05-2.44 571.54-2.44L571.54-2.44Q573.2-2.44 573.86-3.26 574.51-4.08 574.59-5.7L574.59-5.7Q574.64-6.64 574.62-7.41 574.61-8.19 574.61-9.19L574.61-9.19Q574.61-11.26 574.01-12.15 573.4-13.04 572.19-13.46L572.19-13.46 570.27-14.13Q568.72-14.66 567.68-15.43 566.64-16.2 566.09-17.59 565.55-18.98 565.5-21.35L565.5-21.35Q565.46-22.33 565.47-22.99 565.49-23.66 565.5-24.19L565.5-24.19Q565.55-27.43 566.95-28.88 568.35-30.34 571.66-30.34L571.66-30.34Q574.72-30.34 576.11-28.95 577.5-27.56 577.61-24.31L577.61-24.31Q577.64-23.39 577.64-22.16 577.65-20.93 577.59-19.78L577.59-19.78 576.97-19.78Q577.04-20.84 577.03-22.06 577.02-23.29 577-24.28L577-24.28Q576.9-27.23 575.66-28.51 574.41-29.79 571.66-29.79L571.66-29.79Q568.7-29.79 567.45-28.46 566.2-27.13 566.14-24.19L566.14-24.19Q566.14-23.39 566.12-22.82 566.11-22.25 566.14-21.35L566.14-21.35Q566.22-19.14 566.67-17.87 567.11-16.6 568.04-15.89 568.97-15.19 570.47-14.68L570.47-14.68 572.36-14.01Q574.02-13.44 574.64-12.35 575.26-11.26 575.26-9.19L575.26-9.19Q575.26-8.64 575.27-8.08 575.27-7.53 575.27-6.94 575.26-6.36 575.24-5.69L575.24-5.69Q575.16-3.74 574.34-2.81 573.52-1.89 571.54-1.89ZM604.88 0L604.22 0 604.22-23.74Q604.22-26.98 602.98-28.38 601.73-29.79 598.87-29.79L598.87-29.79Q595.91-29.79 594.58-28.51 593.24-27.24 593.13-24.29L593.13-24.29Q593.09-23.28 593.11-22.09 593.13-20.91 593.18-19.78L593.18-19.78 592.52-19.78Q592.47-20.95 592.45-22.1 592.43-23.25 592.47-24.31L592.47-24.31Q592.58-27.54 594.08-28.94 595.57-30.34 598.87-30.34L598.87-30.34Q601.02-30.34 602.34-29.67 603.66-29 604.27-27.55 604.88-26.1 604.88-23.74L604.88-23.74 604.88 0ZM597.73-1.3L597.73-1.3Q599.37-1.3 600.51-2.15 601.66-3 602.26-4.27 602.87-5.54 602.87-6.76L602.87-6.76 602.87-16.73Q601.77-16.31 600.44-15.71 599.11-15.11 597.92-14.46L597.92-14.46Q595.91-13.31 594.97-11.74 594.03-10.18 593.93-7.65L593.93-7.65Q593.91-7.08 593.93-6.56 593.96-6.05 593.99-5.49L593.99-5.49Q594.12-3.41 595.11-2.36 596.11-1.3 597.73-1.3ZM597.87-1.89L597.87-1.89Q596.41-1.89 595.61-2.89 594.81-3.9 594.66-5.53L594.66-5.53Q594.61-6.15 594.59-6.68 594.58-7.2 594.59-7.6L594.59-7.6Q594.69-9.95 595.53-11.41 596.36-12.86 598.16-13.95L598.16-13.95Q599.02-14.48 600.09-15.02 601.17-15.56 602.21-16L602.21-16 602.21-6.7Q602.21-5.53 601.74-4.42 601.28-3.31 600.33-2.6 599.37-1.89 597.87-1.89ZM597.96-2.43L597.96-2.43Q599.19-2.43 599.99-3.05 600.79-3.68 601.17-4.64 601.54-5.61 601.54-6.66L601.54-6.66 601.54-15.24Q600.72-14.84 599.94-14.41 599.17-13.98 598.39-13.45L598.39-13.45Q596.79-12.39 596.06-11.09 595.32-9.8 595.26-7.61L595.26-7.61Q595.24-7.15 595.26-6.64 595.27-6.14 595.31-5.6L595.31-5.6Q595.41-4.23 596.08-3.33 596.74-2.43 597.96-2.43ZM597.19 0.35L597.19 0.35Q594.84 0.35 593.51-1.14 592.18-2.64 592.01-5.34L592.01-5.34Q591.96-6.08 591.94-6.75 591.93-7.43 591.96-7.88L591.96-7.88Q592.11-10.54 593.23-12.49 594.34-14.44 597.16-16L597.16-16Q598.02-16.49 598.73-16.88 599.43-17.26 600.12-17.59 600.81-17.91 601.57-18.21L601.57-18.21 601.57-23.74Q601.57-25.56 601.03-26.56 600.48-27.56 598.87-27.56L598.87-27.56Q597.22-27.56 596.53-26.74 595.84-25.93 595.78-24.18L595.78-24.18Q595.76-23.38 595.76-22.29 595.77-21.21 595.82-19.78L595.82-19.78 595.16-19.78Q595.11-21.28 595.1-22.31 595.09-23.35 595.12-24.23L595.12-24.23Q595.19-26.33 596.08-27.22 596.96-28.11 598.87-28.11L598.87-28.11Q600.82-28.11 601.53-27 602.23-25.89 602.23-23.74L602.23-23.74 602.23-17.76Q600.89-17.26 599.69-16.68 598.49-16.09 597.39-15.48L597.39-15.48Q594.77-14.04 593.76-12.19 592.76-10.34 592.62-7.83L592.62-7.83Q592.59-7.21 592.61-6.64 592.62-6.08 592.67-5.39L592.67-5.39Q592.83-2.88 594.05-1.54 595.27-0.2 597.37-0.2L597.37-0.2Q599.19-0.2 600.48-1.11 601.76-2.02 602.43-3.48L602.43-3.48 602.58-3.48 602.31-0.59 602.31 0 601.63 0 601.63-0.23 602.03-2.29 601.91-2.29Q601.13-1.04 599.96-0.34 598.78 0.35 597.19 0.35ZM603.56 0L602.89 0 602.89-1.6 603.02-5.03 602.87-5.03Q602.31-3.23 600.96-1.99 599.62-0.75 597.53-0.75L597.53-0.75Q595.68-0.75 594.58-1.96 593.48-3.16 593.33-5.43L593.33-5.43Q593.28-6.14 593.27-6.68 593.26-7.23 593.28-7.78L593.28-7.78Q593.41-10.15 594.33-11.9 595.24-13.65 597.66-14.96L597.66-14.96Q598.53-15.44 599.48-15.88 600.42-16.31 601.31-16.68 602.21-17.05 602.89-17.29L602.89-17.29 602.89-23.74Q602.89-26.39 601.96-27.53 601.03-28.68 598.87-28.68L598.87-28.68Q596.59-28.68 595.57-27.65 594.54-26.63 594.46-24.24L594.46-24.24Q594.42-23.23 594.44-22.05 594.46-20.88 594.49-19.78L594.49-19.78 593.84-19.78Q593.79-20.9 593.78-22.09 593.76-23.29 593.79-24.26L593.79-24.26Q593.89-26.93 595.07-28.08 596.24-29.23 598.87-29.23L598.87-29.23Q601.38-29.23 602.47-27.95 603.56-26.68 603.56-23.74L603.56-23.74 603.56 0ZM625.79 0.34L625.79 0.34Q622.71 0.34 621.32-1.06 619.93-2.46 619.81-5.73L619.81-5.73Q619.79-6.84 619.78-8.02 619.78-9.2 619.84-10.3L619.84-10.3 620.45-10.3Q620.4-9.25 620.4-8.01 620.4-6.76 620.43-5.76L620.43-5.76Q620.53-2.79 621.77-1.5 623.01-0.21 625.79-0.21L625.79-0.21Q628.8-0.21 630.06-1.52 631.33-2.83 631.41-5.66L631.41-5.66Q631.45-6.31 631.46-6.86 631.46-7.41 631.46-7.97 631.45-8.53 631.45-9.19L631.45-9.19Q631.45-12.04 630.39-13.45 629.33-14.86 627.13-15.66L627.13-15.66 625.31-16.31Q624.2-16.71 623.58-17.19 622.96-17.68 622.69-18.63 622.41-19.58 622.33-21.38L622.33-21.38Q622.3-22.05 622.3-22.71 622.29-23.36 622.33-24.16L622.33-24.16Q622.43-26.28 623.23-27.19 624.04-28.11 625.91-28.11L625.91-28.11Q627.69-28.11 628.52-27.23 629.35-26.34 629.4-24.2L629.4-24.2Q629.43-23.5 629.44-22.33 629.45-21.16 629.39-19.78L629.39-19.78 628.78-19.78Q628.84-21.11 628.83-22.21 628.81-23.3 628.79-24.18L628.79-24.18Q628.75-26.03 628.06-26.79 627.36-27.56 625.91-27.56L625.91-27.56Q624.39-27.56 623.71-26.78 623.04-25.99 622.98-24.16L622.98-24.16Q622.95-23.41 622.95-22.83 622.94-22.24 622.98-21.38L622.98-21.38Q623.05-19.74 623.29-18.89 623.53-18.04 624.06-17.62 624.59-17.2 625.5-16.86L625.5-16.86 627.29-16.2Q628.75-15.68 629.83-14.88 630.91-14.09 631.51-12.74 632.1-11.4 632.1-9.19L632.1-9.19Q632.1-8.51 632.1-7.96 632.1-7.4 632.1-6.85 632.1-6.3 632.06-5.65L632.06-5.65Q631.95-2.59 630.58-1.13 629.21 0.34 625.79 0.34ZM625.79-0.78L625.79-0.78Q623.25-0.78 622.19-1.98 621.13-3.19 621.05-5.78L621.05-5.78Q621.03-6.85 621.01-7.91 621-8.97 621.06-10.3L621.06-10.3 621.69-10.3Q621.61-8.95 621.63-7.79 621.65-6.64 621.66-5.8L621.66-5.8Q621.74-3.41 622.7-2.37 623.65-1.33 625.79-1.33L625.79-1.33Q628.18-1.33 629.11-2.41 630.04-3.5 630.13-5.68L630.13-5.68Q630.18-6.65 630.17-7.42 630.16-8.19 630.16-9.19L630.16-9.19Q630.16-11.66 629.33-12.81 628.5-13.96 626.79-14.56L626.79-14.56 624.93-15.21Q623.53-15.71 622.71-16.35 621.89-16.99 621.51-18.14 621.13-19.3 621.04-21.36L621.04-21.36Q621-22.26 621.01-22.84 621.03-23.41 621.04-24.18L621.04-24.18Q621.09-26.81 622.18-28.02 623.28-29.23 625.91-29.23L625.91-29.23Q628.38-29.23 629.46-28.08 630.55-26.93 630.63-24.26L630.63-24.26Q630.65-23.34 630.66-22.25 630.68-21.16 630.61-19.78L630.61-19.78 630-19.78Q630.06-21.24 630.05-22.33 630.04-23.43 630.01-24.26L630.01-24.26Q629.95-26.65 628.98-27.66 628-28.68 625.91-28.68L625.91-28.68Q623.65-28.68 622.69-27.61 621.73-26.54 621.69-24.18L621.69-24.18Q621.68-23.38 621.66-22.83 621.65-22.28 621.69-21.36L621.69-21.36Q621.78-19.36 622.13-18.31 622.48-17.25 623.2-16.72 623.93-16.19 625.11-15.76L625.11-15.76 626.95-15.1Q628.93-14.41 629.86-13.14 630.8-11.86 630.8-9.19L630.8-9.19Q630.8-8.19 630.81-7.41 630.81-6.64 630.78-5.66L630.78-5.66Q630.68-3.15 629.58-1.96 628.49-0.78 625.79-0.78ZM625.79-1.89L625.79-1.89Q624.04-1.89 623.19-2.78 622.34-3.66 622.28-5.84L622.28-5.84Q622.26-6.79 622.25-7.94 622.23-9.09 622.29-10.3L622.29-10.3 622.9-10.3Q622.85-9.29 622.86-8.12 622.86-6.95 622.89-5.88L622.89-5.88Q622.93-4.04 623.61-3.24 624.3-2.44 625.79-2.44L625.79-2.44Q627.45-2.44 628.11-3.26 628.76-4.08 628.84-5.7L628.84-5.7Q628.89-6.64 628.88-7.41 628.86-8.19 628.86-9.19L628.86-9.19Q628.86-11.26 628.26-12.15 627.65-13.04 626.44-13.46L626.44-13.46 624.53-14.13Q622.98-14.66 621.93-15.43 620.89-16.2 620.35-17.59 619.8-18.98 619.75-21.35L619.75-21.35Q619.71-22.33 619.73-22.99 619.74-23.66 619.75-24.19L619.75-24.19Q619.8-27.43 621.2-28.88 622.6-30.34 625.91-30.34L625.91-30.34Q628.98-30.34 630.36-28.95 631.75-27.56 631.86-24.31L631.86-24.31Q631.89-23.39 631.9-22.16 631.9-20.93 631.84-19.78L631.84-19.78 631.23-19.78Q631.29-20.84 631.28-22.06 631.28-23.29 631.25-24.28L631.25-24.28Q631.15-27.23 629.91-28.51 628.66-29.79 625.91-29.79L625.91-29.79Q622.95-29.79 621.7-28.46 620.45-27.13 620.39-24.19L620.39-24.19Q620.39-23.39 620.38-22.82 620.36-22.25 620.39-21.35L620.39-21.35Q620.48-19.14 620.92-17.87 621.36-16.6 622.3-15.89 623.23-15.19 624.73-14.68L624.73-14.68 626.61-14.01Q628.28-13.44 628.9-12.35 629.51-11.26 629.51-9.19L629.51-9.19Q629.51-8.64 629.52-8.08 629.53-7.53 629.52-6.94 629.51-6.36 629.49-5.69L629.49-5.69Q629.41-3.74 628.6-2.81 627.78-1.89 625.79-1.89ZM642.77 0.34L642.77 0.34Q639.54 0.34 637.97-1.01 636.4-2.35 636.29-5.73L636.29-5.73Q636.24-7.56 636.21-9.91 636.17-12.25 636.17-14.78 636.17-17.3 636.21-19.74 636.24-22.18 636.3-24.2L636.3-24.2Q636.41-27.46 637.91-28.9 639.4-30.34 642.75-30.34L642.75-30.34Q645.85-30.34 647.36-28.99 648.86-27.64 649-24.29L649-24.29Q649.04-23.63 649.06-22.57 649.07-21.51 649.07-20.16 649.07-18.81 649.05-17.24 649.02-15.68 648.95-14L648.95-14 639.49-14Q639.49-12.54 639.5-11.16 639.51-9.78 639.54-8.47 639.56-7.18 639.6-5.94L639.6-5.94Q639.66-4 640.35-3.22 641.04-2.44 642.77-2.44L642.77-2.44Q644.37-2.44 644.99-3.16 645.6-3.89 645.69-5.89L645.69-5.89Q645.72-6.69 645.71-7.84 645.7-8.99 645.64-10.3L645.64-10.3 646.3-10.3Q646.36-8.93 646.37-7.81 646.39-6.7 646.35-5.85L646.35-5.85Q646.26-3.59 645.47-2.74 644.69-1.89 642.77-1.89L642.77-1.89Q640.71-1.89 639.85-2.78 638.99-3.66 638.92-5.89L638.92-5.89Q638.9-6.99 638.87-8.49 638.85-10 638.84-11.59 638.82-13.19 638.82-14.55L638.82-14.55 648.32-14.55Q648.37-16.1 648.39-17.57 648.41-19.04 648.41-20.31 648.41-21.59 648.39-22.6 648.37-23.61 648.34-24.28L648.34-24.28Q648.2-27.41 646.81-28.6 645.42-29.79 642.75-29.79L642.75-29.79Q639.67-29.79 638.37-28.44 637.06-27.1 636.96-24.16L636.96-24.16Q636.9-22.11 636.87-19.71 636.84-17.3 636.84-14.81 636.84-12.33 636.87-10 636.9-7.68 636.95-5.78L636.95-5.78Q637.05-2.69 638.44-1.45 639.82-0.21 642.77-0.21L642.77-0.21Q645.69-0.21 646.94-1.46 648.2-2.71 648.34-5.76L648.34-5.76Q648.36-6.31 648.37-7.05 648.37-7.79 648.36-8.62 648.34-9.45 648.29-10.3L648.29-10.3 648.95-10.3Q649.01-9.15 649.03-7.93 649.05-6.7 649-5.73L649-5.73Q648.86-2.44 647.44-1.05 646.02 0.34 642.77 0.34ZM642.77-0.78L642.77-0.78Q640.1-0.78 638.9-1.9 637.7-3.03 637.61-5.8L637.61-5.8Q637.55-7.81 637.52-10.22 637.5-12.63 637.5-15.13 637.5-17.64 637.53-19.96 637.56-22.29 637.61-24.11L637.61-24.11Q637.71-26.96 638.94-28.09 640.17-29.23 642.75-29.23L642.75-29.23Q645.15-29.23 646.36-28.16 647.56-27.1 647.67-24.25L647.67-24.25Q647.71-23.51 647.74-22.16 647.76-20.8 647.75-18.99 647.74-17.19 647.67-15.11L647.67-15.11 638.16-15.11Q638.16-12.46 638.18-10.39 638.2-8.31 638.24-5.85L638.24-5.85Q638.27-3.4 639.28-2.36 640.29-1.33 642.77-1.33L642.77-1.33Q645-1.33 645.95-2.29 646.9-3.26 647.01-5.81L647.01-5.81Q647.05-6.66 647.04-7.82 647.02-8.97 646.96-10.3L646.96-10.3 647.62-10.3Q647.69-9.04 647.7-7.86 647.71-6.69 647.67-5.79L647.67-5.79Q647.55-2.99 646.46-1.88 645.37-0.78 642.77-0.78ZM638.16-15.66L638.16-15.66 647.02-15.66Q647.07-17.48 647.08-19.16 647.09-20.85 647.07-22.18 647.05-23.51 647.01-24.23L647.01-24.23Q646.91-26.74 645.89-27.71 644.87-28.68 642.75-28.68L642.75-28.68Q640.49-28.68 639.42-27.67 638.35-26.66 638.27-24.09L638.27-24.09Q638.22-22.61 638.2-20.29 638.17-17.96 638.16-15.66ZM646.36-16.23L638.82-16.23Q638.84-17.34 638.84-18.63 638.85-19.93 638.87-21.31 638.9-22.69 638.94-24.05L638.94-24.05Q639.01-26.33 639.89-27.22 640.77-28.11 642.75-28.11L642.75-28.11Q644.62-28.11 645.44-27.24 646.26-26.38 646.35-24.19L646.35-24.19Q646.37-23.58 646.4-22.41 646.42-21.24 646.42-19.66 646.41-18.07 646.36-16.23L646.36-16.23ZM639.5-16.78L639.5-16.78 645.71-16.78Q645.75-18.41 645.76-19.89 645.76-21.36 645.74-22.48 645.71-23.6 645.69-24.16L645.69-24.16Q645.6-26.1 644.93-26.83 644.26-27.56 642.75-27.56L642.75-27.56Q641.07-27.56 640.37-26.79 639.66-26.01 639.6-24.03L639.6-24.03Q639.57-22.94 639.55-21.79 639.52-20.64 639.51-19.39 639.5-18.15 639.5-16.78ZM659.86 0.34L659.86 0.34Q656.68 0.34 655.12-1 653.55-2.34 653.43-5.73L653.43-5.73Q653.38-7.56 653.35-9.91 653.32-12.25 653.32-14.78 653.32-17.3 653.35-19.74 653.38-22.18 653.45-24.2L653.45-24.2Q653.56-27.46 655.03-28.9 656.5-30.34 659.82-30.34L659.82-30.34Q663.03-30.34 664.55-28.99 666.07-27.64 666.15-24.31L666.15-24.31Q666.17-23.4 666.17-22.17 666.16-20.94 666.1-19.78L666.1-19.78 665.43-19.78Q665.5-20.84 665.5-22.06 665.51-23.28 665.48-24.29L665.48-24.29Q665.42-27.25 664.11-28.52 662.8-29.79 659.82-29.79L659.82-29.79Q656.8-29.79 655.5-28.46 654.21-27.13 654.11-24.16L654.11-24.16Q654.05-22.1 654.02-19.7 653.98-17.3 653.98-14.81 653.98-12.33 654.02-10 654.05-7.68 654.1-5.78L654.1-5.78Q654.18-2.73 655.58-1.47 656.97-0.21 659.86-0.21L659.86-0.21Q662.8-0.21 664.08-1.49 665.37-2.76 665.48-5.75L665.48-5.75Q665.52-6.73 665.52-7.79 665.51-8.85 665.43-10.3L665.43-10.3 666.1-10.3Q666.16-9.14 666.18-8.06 666.2-6.99 666.15-5.73L666.15-5.73Q666.02-2.49 664.58-1.07 663.15 0.34 659.86 0.34ZM659.86-0.78L659.86-0.78Q657.25-0.78 656.04-1.94 654.83-3.1 654.76-5.8L654.76-5.8Q654.71-7.81 654.68-10.23 654.65-12.64 654.65-15.14 654.65-17.65 654.68-19.98 654.71-22.3 654.76-24.13L654.76-24.13Q654.86-27.04 656.1-28.13 657.33-29.23 659.82-29.23L659.82-29.23Q662.43-29.23 663.6-28.11 664.77-26.99 664.82-24.26L664.82-24.26Q664.83-23.38 664.83-22.21 664.83-21.05 664.77-19.78L664.77-19.78 664.11-19.78Q664.17-21.1 664.17-22.28 664.17-23.46 664.16-24.25L664.16-24.25Q664.12-26.74 663.1-27.71 662.07-28.68 659.82-28.68L659.82-28.68Q657.63-28.68 656.57-27.7 655.5-26.73 655.42-24.09L655.42-24.09Q655.37-22.58 655.34-20.36 655.31-18.14 655.29-15.61 655.27-13.09 655.3-10.57 655.32-8.05 655.38-5.94L655.38-5.94Q655.47-3.35 656.52-2.34 657.57-1.33 659.86-1.33L659.86-1.33Q662.1-1.33 663.08-2.31 664.06-3.3 664.16-5.78L664.16-5.78Q664.2-6.7 664.19-7.76 664.18-8.83 664.11-10.3L664.11-10.3 664.77-10.3Q664.85-8.72 664.85-7.72 664.86-6.71 664.82-5.78L664.82-5.78Q664.71-3.05 663.6-1.91 662.48-0.78 659.86-0.78ZM659.86-1.89L659.86-1.89Q657.9-1.89 657.02-2.77 656.13-3.65 656.07-5.95L656.07-5.95Q656.02-7.84 656-10.14 655.97-12.44 655.97-14.89 655.97-17.34 656-19.69 656.03-22.05 656.08-24.05L656.08-24.05Q656.16-26.38 657.03-27.24 657.91-28.11 659.82-28.11L659.82-28.11Q661.8-28.11 662.63-27.24 663.47-26.38 663.5-24.2L663.5-24.2Q663.51-23.31 663.51-22.22 663.51-21.13 663.45-19.78L663.45-19.78 662.78-19.78Q662.85-21.16 662.85-22.26 662.85-23.35 662.83-24.19L662.83-24.19Q662.81-26.04 662.17-26.8 661.52-27.56 659.82-27.56L659.82-27.56Q658.18-27.56 657.5-26.79 656.81-26.03 656.75-24.03L656.75-24.03Q656.7-22.25 656.67-20.04 656.63-17.84 656.63-15.43 656.63-13.01 656.66-10.59 656.68-8.16 656.75-5.94L656.75-5.94Q656.81-4 657.48-3.22 658.16-2.44 659.86-2.44L659.86-2.44Q661.52-2.44 662.15-3.21 662.78-3.99 662.83-5.86L662.83-5.86Q662.86-6.84 662.86-7.82 662.86-8.8 662.78-10.3L662.78-10.3 663.45-10.3Q663.52-8.84 663.53-7.77 663.53-6.7 663.5-5.85L663.5-5.85Q663.42-3.65 662.62-2.77 661.81-1.89 659.86-1.89ZM672.83 0L672.16 0 672.16-30 672.82-30 672.82-28.4 672.67-24.98 672.84-24.98Q673.48-26.85 674.86-27.86 676.23-28.88 678.31-28.88L678.31-28.88Q678.82-28.88 679.34-28.86 679.87-28.85 680.19-28.84L680.19-28.84 680.19-28.24Q679.84-28.26 679.29-28.27 678.73-28.28 678.19-28.28L678.19-28.28Q676.37-28.28 675.18-27.51 673.98-26.75 673.41-25.59 672.83-24.44 672.83-23.24L672.83-23.24 672.83 0ZM671.49 0L670.83 0 670.83-30 671.49-30 671.49 0ZM674.19 0L673.49 0 673.49-23.3Q673.49-25.09 674.62-26.36 675.74-27.64 677.94-27.64L677.94-27.64Q678.52-27.64 679.09-27.64 679.67-27.64 680.19-27.64L680.19-27.64 680.19-27.04Q679.67-27.04 679.09-27.04 678.51-27.04 677.94-27.04L677.94-27.04Q675.99-27.04 675.09-25.98 674.19-24.91 674.19-23.34L674.19-23.34 674.19 0ZM673.29-26.53L673.09-26.53 673.47-29.41 673.47-30 674.14-30 674.14-29.78 673.67-27.71 673.79-27.71Q674.47-28.86 675.79-29.46 677.12-30.06 678.56-30.06L678.56-30.06Q678.91-30.06 679.31-30.06 679.71-30.05 680.19-30.01L680.19-30.01 680.19-29.43Q679.77-29.45 679.38-29.46 678.98-29.48 678.59-29.48L678.59-29.48Q676.79-29.48 675.43-28.78 674.07-28.09 673.29-26.53L673.29-26.53ZM689.77 0.34L689.77 0.34Q686.53 0.34 684.96-1.01 683.39-2.35 683.28-5.73L683.28-5.73Q683.23-7.56 683.2-9.91 683.17-12.25 683.17-14.78 683.17-17.3 683.2-19.74 683.23-22.18 683.29-24.2L683.29-24.2Q683.4-27.46 684.9-28.9 686.39-30.34 689.74-30.34L689.74-30.34Q692.84-30.34 694.35-28.99 695.85-27.64 695.99-24.29L695.99-24.29Q696.03-23.63 696.05-22.57 696.07-21.51 696.07-20.16 696.07-18.81 696.04-17.24 696.02-15.68 695.94-14L695.94-14 686.48-14Q686.48-12.54 686.49-11.16 686.5-9.78 686.53-8.47 686.55-7.18 686.59-5.94L686.59-5.94Q686.65-4 687.34-3.22 688.03-2.44 689.77-2.44L689.77-2.44Q691.37-2.44 691.98-3.16 692.59-3.89 692.68-5.89L692.68-5.89Q692.72-6.69 692.7-7.84 692.69-8.99 692.63-10.3L692.63-10.3 693.29-10.3Q693.35-8.93 693.37-7.81 693.38-6.7 693.34-5.85L693.34-5.85Q693.25-3.59 692.47-2.74 691.68-1.89 689.77-1.89L689.77-1.89Q687.7-1.89 686.84-2.78 685.98-3.66 685.92-5.89L685.92-5.89Q685.89-6.99 685.87-8.49 685.84-10 685.83-11.59 685.82-13.19 685.82-14.55L685.82-14.55 695.32-14.55Q695.37-16.1 695.39-17.57 695.4-19.04 695.4-20.31 695.4-21.59 695.39-22.6 695.37-23.61 695.33-24.28L695.33-24.28Q695.19-27.41 693.8-28.6 692.42-29.79 689.74-29.79L689.74-29.79Q686.67-29.79 685.36-28.44 684.05-27.1 683.95-24.16L683.95-24.16Q683.89-22.11 683.86-19.71 683.83-17.3 683.83-14.81 683.83-12.33 683.86-10 683.89-7.68 683.94-5.78L683.94-5.78Q684.04-2.69 685.43-1.45 686.82-0.21 689.77-0.21L689.77-0.21Q692.68-0.21 693.94-1.46 695.19-2.71 695.33-5.76L695.33-5.76Q695.35-6.31 695.36-7.05 695.37-7.79 695.35-8.62 695.33-9.45 695.28-10.3L695.28-10.3 695.94-10.3Q696-9.15 696.02-7.93 696.04-6.7 695.99-5.73L695.99-5.73Q695.85-2.44 694.44-1.05 693.02 0.34 689.77 0.34ZM689.77-0.78L689.77-0.78Q687.09-0.78 685.89-1.9 684.69-3.03 684.6-5.8L684.6-5.8Q684.54-7.81 684.52-10.22 684.49-12.63 684.49-15.13 684.49-17.64 684.52-19.96 684.55-22.29 684.6-24.11L684.6-24.11Q684.7-26.96 685.94-28.09 687.17-29.23 689.74-29.23L689.74-29.23Q692.14-29.23 693.35-28.16 694.55-27.1 694.67-24.25L694.67-24.25Q694.7-23.51 694.73-22.16 694.75-20.8 694.74-18.99 694.73-17.19 694.67-15.11L694.67-15.11 685.15-15.11Q685.15-12.46 685.17-10.39 685.19-8.31 685.23-5.85L685.23-5.85Q685.27-3.4 686.27-2.36 687.28-1.33 689.77-1.33L689.77-1.33Q691.99-1.33 692.94-2.29 693.89-3.26 694-5.81L694-5.81Q694.04-6.66 694.03-7.82 694.02-8.97 693.95-10.3L693.95-10.3 694.62-10.3Q694.68-9.04 694.69-7.86 694.7-6.69 694.67-5.79L694.67-5.79Q694.54-2.99 693.45-1.88 692.37-0.78 689.77-0.78ZM685.15-15.66L685.15-15.66 694.02-15.66Q694.07-17.48 694.07-19.16 694.08-20.85 694.06-22.18 694.04-23.51 694-24.23L694-24.23Q693.9-26.74 692.89-27.71 691.87-28.68 689.74-28.68L689.74-28.68Q687.48-28.68 686.41-27.67 685.34-26.66 685.27-24.09L685.27-24.09Q685.22-22.61 685.19-20.29 685.17-17.96 685.15-15.66ZM693.35-16.23L685.82-16.23Q685.83-17.34 685.84-18.63 685.84-19.93 685.87-21.31 685.89-22.69 685.93-24.05L685.93-24.05Q686-26.33 686.89-27.22 687.77-28.11 689.74-28.11L689.74-28.11Q691.62-28.11 692.44-27.24 693.25-26.38 693.34-24.19L693.34-24.19Q693.37-23.58 693.39-22.41 693.42-21.24 693.41-19.66 693.4-18.07 693.35-16.23L693.35-16.23ZM686.49-16.78L686.49-16.78 692.7-16.78Q692.74-18.41 692.75-19.89 692.75-21.36 692.73-22.48 692.7-23.6 692.68-24.16L692.68-24.16Q692.59-26.1 691.92-26.83 691.25-27.56 689.74-27.56L689.74-27.56Q688.07-27.56 687.36-26.79 686.65-26.01 686.59-24.03L686.59-24.03Q686.57-22.94 686.54-21.79 686.52-20.64 686.5-19.39 686.49-18.15 686.49-16.78ZM707.4-0.85L707.4-0.85Q704.44-0.85 703.52-2.04 702.6-3.24 702.6-5.73L702.6-5.73 702.6-28.23 699.24-28.23 699.24-28.81 702.6-28.81 702.6-38.5 703.28-38.5 703.28-28.81 709.14-28.81 709.14-28.23 703.28-28.23 703.28-5.73Q703.28-3.44 704.08-2.44 704.89-1.44 707.4-1.44L707.4-1.44Q707.93-1.44 708.5-1.48 709.06-1.53 709.64-1.61L709.64-1.61 709.64-1.04Q709.14-0.94 708.56-0.89 707.98-0.85 707.4-0.85ZM707.4 0.34L707.4 0.34Q703.9 0.34 702.59-1.07 701.28-2.49 701.28-5.73L701.28-5.73 701.28-27.04 699.24-27.04 699.24-27.64 701.94-27.64 701.94-5.73Q701.94-2.88 703.04-1.56 704.14-0.25 707.4-0.25L707.4-0.25Q707.98-0.25 708.56-0.3 709.14-0.35 709.64-0.48L709.64-0.48 709.64 0.1Q708.75 0.34 707.4 0.34ZM707.4-2.02L707.4-2.02Q705.24-2.02 704.59-2.87 703.94-3.71 703.94-5.73L703.94-5.73 703.94-27.64 709.14-27.64 709.14-27.04 704.6-27.04 704.6-5.73Q704.6-3.99 705.11-3.3 705.61-2.61 707.4-2.61L707.4-2.61Q708.06-2.61 708.65-2.65 709.23-2.69 709.64-2.76L709.64-2.76 709.64-2.2Q709.16-2.11 708.59-2.07 708.01-2.02 707.4-2.02ZM701.94-29.41L699.24-29.41 699.24-30 701.28-30 701.28-38.5 701.94-38.5 701.94-29.41ZM709.14-29.41L703.94-29.41 703.94-38.5 704.6-38.5 704.6-30 709.14-30 709.14-29.41Z" opacity="1" transform="matrix(1,0,0,1,0,0)" fill="#31302e" class="slogan-text-1" data-fill-palette-color="secondary" id="text-1"></path></svg></g></svg></g></svg></g></svg></g><g><svg viewBox="0 0 213.862049032766 213.862049032766" height="213.862049032766" width="213.862049032766"><g><svg></svg></g><g id="icon-0"><svg viewBox="0 0 213.862049032766 213.862049032766" height="213.862049032766" width="213.862049032766"><g><rect width="194.4560482872002" height="194.4560482872002" x="9.70300037278291" y="9.70300037278291" fill="#00897b" data-fill-palette-color="accent"></rect><rect width="194.4560482872002" height="194.4560482872002" x="19.406000745565812" y="8.881784197001252e-15" fill="#00897b" opacity="0.5" data-fill-palette-color="accent"></rect></g><g transform="matrix(1,0,0,1,29.410894817805158,27.72285820795115)"><svg viewBox="0 0 155.0402593971557 158.4163326168637" height="158.4163326168637" width="155.0402593971557"><g><svg xmlns="http://www.w3.org/2000/svg" xmlns:xlink="http://www.w3.org/1999/xlink" version="1.2" baseProfile="tiny" x="0" y="0" viewBox="3.7734013676289093 2.760769515458673 92.4265986323711 94.43923048454133" xml:space="preserve" height="158.4163326168637" width="155.0402593971557" class="icon-dxe-0" data-fill-palette-color="quaternary" id="dxe-0"><path d="M96.2 45.8C96.2 45.4 96.1 45.1 95.9 44.8S95.3 44.4 95 44.4H90.2C87.8 42.3 85 40.3 81.9 38.5L95.9 15C96.1 14.7 96.1 14.4 96 14S95.7 13.4 95.4 13.2L90.2 10.3C89.9 10.1 89.6 10.1 89.2 10.2 88.9 10.3 88.6 10.5 88.4 10.8L75.8 35.5C74.5 34.9 73.1 34.3 71.7 33.8L77.6 5.3C77.7 5 77.6 4.6 77.4 4.3S76.9 3.8 76.6 3.8L70.7 2.8C70.4 2.7 70 2.8 69.8 3S69.3 3.5 69.3 3.8L65.3 31.6C61.4 30.4 57.3 29.5 53.1 28.9 51.5 28.7 50 28.5 48.4 28.3 44.4 26 39.9 24.6 35.1 24.6 23.1 24.6 12.6 32.9 9.7 44.5H5C4.6 44.5 4.3 44.7 4.1 44.9 3.9 45.2 3.7 45.5 3.8 45.9 3.8 46.3 8.1 83.4 31.8 91.1V93C31.8 95.3 33.7 97.2 36 97.2H64C66.3 97.2 68.2 95.3 68.2 93V91C92 83.3 96.2 46.2 96.2 45.8M86.2 44.5H81.7C80.9 43.9 80.1 43.4 79.3 42.8L80.5 40.8C82.6 41.9 84.5 43.1 86.2 44.5M60.4 44.5C60.2 43.7 60 43 59.7 42.2 62.2 42.8 64.6 43.6 66.8 44.5zM72.6 44.5C68.6 42.3 63.7 40.5 58.6 39.4 58.2 38.6 57.8 37.7 57.3 37 64.9 38.5 71.9 41.1 77.4 44.5zM69.8 17.2L72.4 17.7 68.3 37.4C67.8 37.2 67.4 37.1 66.9 36.9zM84.7 23.8L87 25.1 77.2 41.5C76.8 41.3 76.3 41 75.9 40.8zM90.1 13.3L93.1 15 88.3 23 85.8 21.6zM74.7 37.7L73.7 39.6C72.8 39.2 71.8 38.7 70.8 38.3L71.2 36.2C72.4 36.8 73.5 37.2 74.7 37.7M71.5 5.5L74.9 6.1 73 15.3 70.2 14.8zM52.7 31.4C56.9 32 61 33 64.9 34.1L64.6 36.1C61.5 35.2 58.3 34.4 55 33.9 54.2 33 53.4 32.1 52.4 31.3 52.5 31.4 52.6 31.4 52.7 31.4M35 27.1C45.6 27.1 55 34.3 57.9 44.5H55.3C52.5 35.7 44.3 29.6 35.1 29.6 25.8 29.6 17.6 35.7 14.8 44.5H12.2C15 34.3 24.3 27.1 35 27.1M44.2 44.5C42.1 41.5 38.7 39.6 35 39.6S27.9 41.4 25.8 44.5H22.9C25.3 40 29.9 37.1 35.1 37.1 40.2 37.1 44.9 40 47.3 44.5zM41 44.5H29C30.6 43 32.7 42.1 35 42.1S39.4 43 41 44.5M49.9 44.5C47.4 38.6 41.5 34.6 35 34.6S22.6 38.5 20.1 44.5H17.4C20 37.1 27.1 32.1 35 32.1S50 37.1 52.6 44.5zM65.7 92.9C65.7 93.9 64.9 94.7 63.9 94.7H36C35 94.7 34.2 93.9 34.2 92.9V91.7C36.2 92.2 38.4 92.4 40.7 92.4H59.2C61.5 92.4 63.7 92.1 65.7 91.7zM59.2 89.9H40.8C38.2 89.9 35.8 89.5 33.5 88.9 13 83.1 7.5 53.7 6.5 46.9H93.6C92.4 54.5 85.7 89.9 59.2 89.9" fill="#ffffff" data-fill-palette-color="quaternary"></path></svg></g></svg></g></svg></g></svg></g></svg></g><defs></defs></svg><rect width="395.52" height="135.55090294410377" fill="none" stroke="none" visibility="hidden"></rect></g></svg></g></svg>